<svg width="101" height="25" viewBox="0 0 101 25" fill="none" xmlns="http://www.w3.org/2000/svg">
<path d="M21.0227 0.968018C21.0957 0.968018 21.1322 1.00353 21.1322 1.07455C21.1322 1.74925 21.3877 2.38845 21.8257 2.8856C22.3731 3.52479 23.1761 3.8799 24.0155 3.8799C24.125 3.84439 24.1615 4.05745 24.052 4.05745C23.4681 4.05745 22.9206 4.235 22.4461 4.51909C21.6797 5.01624 21.1687 5.90401 21.1322 6.79178C21.1322 6.8628 21.1322 6.93382 21.0592 6.93382C20.9862 6.96933 20.9497 6.89831 20.9497 6.82729C20.9497 6.1881 20.6943 5.5489 20.2928 5.01624C19.7453 4.37705 18.9424 3.98643 18.1029 3.98643C18.0664 3.98643 17.9934 3.98643 17.9934 3.95092C17.9569 3.8799 17.9934 3.80888 18.0664 3.80888C18.7234 3.80888 19.3438 3.59581 19.8548 3.20519C20.5483 2.67253 20.9497 1.85579 20.9497 1.00353C20.9497 1.03904 20.9862 0.968018 21.0227 0.968018ZM5.98564 3.06315C6.6791 3.06315 7.37258 3.06315 8.06604 3.06315C10.0734 8.14119 12.0808 13.2192 14.0882 18.2973C13.4312 18.2973 12.7742 18.2973 12.1173 18.2973C11.6428 17.0899 11.1683 15.847 10.6574 14.6396C8.24852 14.6396 5.80316 14.6396 3.39431 14.6396C2.91984 15.847 2.44536 17.0899 1.97089 18.2973C1.31393 18.2973 0.65696 18.2973 0 18.2973C2.00738 13.2192 3.97827 8.14119 5.98564 3.06315ZM4.19724 12.6155C6.09513 12.6155 7.99301 12.6155 9.8544 12.6155C8.90545 10.2008 7.95654 7.82159 7.0076 5.40686C6.09515 7.82159 5.14618 10.2363 4.19724 12.6155ZM15.2196 3.06315C15.8766 3.06315 16.57 3.06315 17.227 3.06315C17.227 8.14119 17.227 13.2192 17.227 18.2973C16.57 18.2973 15.8766 18.2973 15.2196 18.2973C15.2196 13.2192 15.2196 8.14119 15.2196 3.06315ZM20.0373 7.43097C20.6942 7.43097 21.3877 7.43097 22.0447 7.43097C22.0447 11.0531 22.0447 14.6752 22.0447 18.2973C21.3877 18.2973 20.6942 18.2973 20.0373 18.2973C20.0373 14.6752 20.0373 11.0531 20.0373 7.43097Z" fill="white" fill-opacity="0.7"/>
<path d="M24.891 3.06323C27.9933 3.06323 31.0591 3.06323 34.1614 3.06323C34.1614 3.73794 34.1614 4.37713 34.1614 5.05183C31.7526 5.05183 29.3437 5.05183 26.9348 5.05183C26.9348 6.5788 26.9348 8.14127 26.9348 9.66823C29.0882 9.66823 31.2051 9.66823 33.3584 9.66823C33.3584 10.3074 33.3584 10.9466 33.3584 11.5503C31.2051 11.5503 29.0882 11.5503 26.9348 11.5503C26.9348 13.1128 26.9348 14.7108 26.9348 16.2732C29.5262 16.2732 32.1175 16.2732 34.7089 16.2732C34.7089 16.9479 34.7089 17.5871 34.7089 18.2618C31.4241 18.2618 28.1393 18.2618 24.8545 18.2618C24.891 13.2193 24.891 8.14127 24.891 3.06323ZM97.6309 5.97511C97.9959 5.97511 98.3609 5.97511 98.7258 5.97511C98.7258 6.04613 98.7258 6.11716 98.7258 6.18818C98.5799 6.18818 98.4339 6.18818 98.3244 6.18818C98.3244 6.5788 98.3244 6.96941 98.3244 7.39554C98.2514 7.39554 98.1784 7.39554 98.0689 7.39554C98.0689 7.00492 98.0689 6.61431 98.0689 6.18818C97.9229 6.18818 97.7769 6.18818 97.6309 6.18818C97.6309 6.11716 97.6309 6.04613 97.6309 5.97511ZM98.9083 5.97511C99.0178 5.97511 99.1273 5.97511 99.2368 5.97511C99.3828 6.33022 99.4923 6.72084 99.6383 7.07595C99.7843 6.72084 99.8938 6.33022 100.04 5.97511C100.149 5.97511 100.259 5.97511 100.368 5.97511C100.368 6.43675 100.368 6.89839 100.368 7.36003C100.295 7.36003 100.222 7.36003 100.149 7.36003C100.149 6.96941 100.149 6.5788 100.149 6.18818C100.003 6.5788 99.8573 6.96941 99.7113 7.36003C99.6383 7.36003 99.5653 7.36003 99.4923 7.36003C99.3463 6.96941 99.2368 6.61431 99.0908 6.22369C99.0908 6.61431 99.0908 6.96941 99.0908 7.36003C99.0178 7.36003 98.9448 7.36003 98.8718 7.36003C98.9083 6.89839 98.9083 6.43675 98.9083 5.97511ZM66.2064 7.04044C66.4254 7.00492 66.6809 7.00492 66.8998 7.00492C66.8998 7.64412 66.8998 8.31882 66.8998 8.95801C65.9144 8.95801 64.929 9.34863 64.2355 9.98783C63.5785 10.5915 63.1041 11.4438 62.9946 12.3315C62.9581 12.6511 62.9581 12.9707 62.9581 13.2903C62.9581 14.9593 62.9581 16.6283 62.9581 18.2973C62.3011 18.2973 61.6077 18.2973 60.9507 18.2973C60.9507 14.6397 60.9507 10.9821 60.9507 7.32452C61.6077 7.32452 62.3011 7.32452 62.9581 7.32452C62.9581 7.71514 62.9581 8.07025 62.9581 8.46086C63.8705 7.67963 65.002 7.18248 66.2064 7.04044ZM52.3008 7.18248C53.5052 6.9339 54.8191 7.04044 55.9505 7.53759C57.009 7.99923 57.9579 8.74495 58.5784 9.70374C59.2718 10.7691 59.6003 12.0474 59.4908 13.2903C59.4178 14.3912 58.9799 15.4565 58.2864 16.3442C57.5929 17.1965 56.6805 17.9067 55.622 18.2618C54.9286 18.5104 54.1986 18.6524 53.4687 18.6169C52.0088 18.5104 50.5854 17.8712 49.5999 16.8414C49.5999 19.2206 49.5999 21.6353 49.5999 24.0146C48.943 24.0146 48.2495 24.0146 47.5925 24.0146C47.5925 20.57 47.5925 17.1255 47.5925 13.7165C47.5925 13.0773 47.5561 12.4381 47.7021 11.8344C47.921 10.6625 48.505 9.59721 49.3445 8.78046C50.1474 7.96371 51.1693 7.39554 52.3008 7.18248ZM53.1767 8.9225C52.5563 8.99353 51.9723 9.17108 51.4613 9.52619C50.5854 10.0588 49.9649 10.9466 49.7459 11.9409C49.6729 12.3315 49.6729 12.7222 49.6729 13.1128C49.6729 13.5744 49.7824 14.036 49.9649 14.4267C50.3664 15.3855 51.1693 16.1667 52.1548 16.5218C53.2497 16.9479 54.5636 16.8414 55.5856 16.2377C56.5345 15.7051 57.1915 14.7463 57.4104 13.6809C57.4834 13.2903 57.4834 12.8997 57.4834 12.5091C57.4469 11.6213 57.082 10.7691 56.4615 10.1299C55.6221 9.2421 54.3811 8.78046 53.1767 8.9225ZM69.2722 8.49638C70.6226 7.28901 72.63 6.79186 74.4184 7.18248C75.3673 7.39554 76.2798 7.89269 76.9732 8.5674C77.8492 9.41965 78.3601 10.556 78.4696 11.7279C78.5061 12.1185 78.4696 12.5091 78.4696 12.8997C78.4696 13.1838 78.4696 13.4679 78.4696 13.752C75.4403 13.752 72.3745 13.752 69.3452 13.752C69.5642 14.6397 70.1117 15.421 70.8781 15.9891C71.7541 16.6283 72.8855 16.9124 73.9439 16.7349C74.8564 16.5928 75.6958 16.0957 76.3163 15.421C76.8272 15.8116 77.3017 16.2022 77.8127 16.5928C76.8637 17.6937 75.4768 18.4039 74.0169 18.5814C72.9585 18.7235 71.8635 18.5459 70.8781 18.1198C70.0752 17.7647 69.3817 17.2675 68.8342 16.6283C68.1773 15.8826 67.7028 14.9948 67.4838 14.036C67.2283 12.9352 67.3378 11.7989 67.7393 10.7691C67.9948 9.88129 68.5422 9.10006 69.2722 8.49638ZM70.9146 9.59721C70.1116 10.1299 69.5277 10.9821 69.3087 11.9054C71.681 11.9054 74.0899 11.9054 76.4622 11.9054C76.3892 11.3017 76.1703 10.698 75.8053 10.2009C75.2943 9.52619 74.4914 9.06455 73.6519 8.95801C72.703 8.85148 71.681 9.10006 70.9146 9.59721ZM82.8128 7.14697C83.5063 7.04043 84.1998 7.00492 84.8932 7.14697C86.0612 7.39554 87.0831 8.07025 87.7765 8.99353C87.2656 9.31312 86.7911 9.66823 86.2801 9.98783C85.9516 9.52619 85.4772 9.17108 84.9662 8.95801C84.2728 8.67393 83.4333 8.67393 82.7399 8.88699C82.3384 9.02904 81.9734 9.2421 81.7544 9.59721C81.5719 9.84578 81.499 10.2009 81.6084 10.485C81.6814 10.8046 81.9734 11.0176 82.2654 11.1597C82.8493 11.4793 83.4698 11.6213 84.1268 11.7634C84.6742 11.8699 85.2582 11.9764 85.7692 12.154C86.2801 12.296 86.7546 12.5446 87.1561 12.8642C87.6671 13.2903 88.032 13.8585 88.105 14.5332C88.178 15.1724 88.1415 15.8471 87.9225 16.4508C87.7035 16.9834 87.3386 17.4096 86.8641 17.7292C86.3896 18.0488 85.8422 18.2973 85.2947 18.4039C84.7107 18.5459 84.1268 18.6169 83.5428 18.5814C82.3749 18.5459 81.2069 18.1553 80.258 17.4806C79.893 17.232 79.5646 16.9479 79.2726 16.5928C79.7836 16.2022 80.2945 15.8116 80.8055 15.421C81.4989 16.3798 82.7398 16.9479 83.9443 16.8414C84.4552 16.8059 85.0027 16.6994 85.4407 16.4153C85.7327 16.2377 85.9516 15.9891 86.0976 15.6695C86.2071 15.3144 86.2071 14.9593 86.0612 14.6042C85.8422 14.1781 85.4042 13.894 84.9297 13.7165C84.3093 13.5034 83.6523 13.3969 83.0318 13.2548C82.4114 13.1128 81.7909 12.9352 81.2435 12.6511C80.55 12.296 79.966 11.6923 79.8201 10.9466C79.6741 10.2364 79.7105 9.49068 80.0755 8.85148C80.331 8.42535 80.6595 8.03474 81.0975 7.78616C81.5354 7.50207 82.1559 7.2535 82.8128 7.14697ZM91.3168 7.50207C91.9738 7.21799 92.7037 7.04044 93.3972 7.04044C94.4921 7.00492 95.5871 7.32452 96.463 7.96371C96.8645 8.2478 97.193 8.60291 97.485 8.99353C96.974 9.31312 96.463 9.63272 95.9885 9.98783C95.6965 9.5617 95.2951 9.2421 94.8206 9.02904C94.0907 8.67393 93.2512 8.67393 92.4847 8.88699C92.1198 8.99353 91.7548 9.20659 91.4993 9.52619C91.2803 9.81027 91.1709 10.2009 91.2803 10.5205C91.3533 10.7691 91.5723 10.9466 91.7913 11.1242C92.2657 11.4083 92.7767 11.5503 93.2877 11.6923C93.6892 11.7989 94.1271 11.8344 94.5286 11.9409C95.1126 12.083 95.7331 12.225 96.244 12.5446C96.7185 12.7932 97.1564 13.1838 97.4119 13.6809C97.7039 14.2136 97.7769 14.8528 97.7404 15.421C97.7039 15.9536 97.5579 16.4508 97.2659 16.9124C96.974 17.3385 96.609 17.6937 96.171 17.9422C95.587 18.2973 94.8936 18.4749 94.2366 18.5459C93.6527 18.6169 93.0687 18.6524 92.4847 18.5459C91.0978 18.3684 89.7839 17.6581 88.8715 16.6283C89.3094 16.2732 89.7839 15.9181 90.2584 15.563C90.2949 15.5275 90.3679 15.492 90.4044 15.4565C91.0978 16.4153 92.3388 16.9834 93.5432 16.8769C94.0907 16.8414 94.6381 16.6994 95.0761 16.3798C95.3681 16.1667 95.6236 15.8471 95.6966 15.492C95.7696 15.1724 95.733 14.8173 95.5871 14.5332C95.3316 14.1071 94.8936 13.8585 94.4191 13.7165C93.7622 13.5034 93.1052 13.3969 92.4483 13.2548C91.8278 13.1128 91.2073 12.9352 90.6963 12.6156C90.1854 12.3315 89.7839 11.9054 89.5649 11.4083C89.3459 10.9111 89.3459 10.3784 89.3824 9.88129C89.4554 9.34863 89.6744 8.81597 90.0394 8.42535C90.4044 8.03474 90.8424 7.71514 91.3168 7.50207ZM35.6213 7.36003C36.4243 7.36003 37.2272 7.36003 37.9937 7.36003C39.0521 8.70944 40.1105 10.0233 41.169 11.3727C42.2274 10.0233 43.2858 8.70944 44.3442 7.36003C45.1472 7.36003 45.9501 7.36003 46.7166 7.36003C45.2932 9.17108 43.8333 11.0176 42.3734 12.8287C43.8333 14.6397 45.2567 16.4863 46.7166 18.2973C45.9136 18.2973 45.1472 18.2973 44.3442 18.2973C43.2858 16.9834 42.2274 15.634 41.169 14.2846C40.1105 15.634 39.0521 16.9479 37.9937 18.2973C37.1907 18.2973 36.3878 18.2973 35.6213 18.2973C37.0812 16.4863 38.5046 14.6397 39.9645 12.8287C38.5046 10.9821 37.0812 9.17108 35.6213 7.36003Z" fill="white" fill-opacity="0.7"/>
</svg>
