<svg width="63" height="33" viewBox="0 0 63 33" fill="none" xmlns="http://www.w3.org/2000/svg">
<path d="M27.4987 10.4897V15.3561H24.9043V8.11426C25.1344 8.52417 25.4274 8.91307 25.7726 9.27043C26.1701 9.68035 26.599 10.0167 27.0697 10.2795C27.2057 10.353 27.3522 10.4161 27.4987 10.4897Z" fill="#303030"/>
<path d="M40.8234 13.5874C40.8234 15.1195 40.3378 16.4167 39.3664 17.4456C38.3951 18.4856 37.1863 19 35.7401 19H31.477V11.6416H34.2291V16.3161H35.7401C36.4632 16.3161 37.0568 16.07 37.5209 15.5668C37.985 15.0636 38.2116 14.4038 38.2116 13.5762C38.2116 12.7487 37.985 12.0889 37.5209 11.5856C37.0676 11.0824 36.474 10.8364 35.7401 10.8364H29.9768C29.1134 10.8364 28.3364 10.6574 27.6456 10.2884C27.6025 10.266 27.5485 10.2437 27.5053 10.2101C27.0844 9.97528 26.7067 9.66215 26.3505 9.28193C26.1023 9.02472 25.8972 8.74514 25.7137 8.45438C25.2065 7.63802 24.9367 6.69865 24.9043 5.63626V5.2113C24.9475 3.76869 25.4331 2.53855 26.3613 1.55444C27.3326 0.51442 28.5414 0 29.9876 0H34.2507V7.35845H31.4986V2.69511H29.9876C29.2645 2.69511 28.6709 2.94114 28.2068 3.44438C27.7428 3.94762 27.5161 4.60742 27.5161 5.43496C27.5161 6.26251 27.7428 6.92231 28.2068 7.42554C28.6601 7.92878 29.2537 8.17481 29.9876 8.17481H35.7509C37.1971 8.17481 38.4059 8.68923 39.3772 9.72925C40.3378 10.7693 40.8234 12.0553 40.8234 13.5874Z" fill="#303030"/>
<path d="M26.1772 26.0483H27.8979V32.8291H26.1772V29.1805L24.5347 31.8973H24.3559L22.7358 29.1917V32.8291H21.0039V26.0483H22.7358L24.4453 28.9447L26.1772 26.0483Z" fill="#303030"/>
<path d="M4.6224 26.0479H2.51062L0.287109 32.8286H2.16424L2.45475 31.8519H4.70061L4.99112 32.8286H6.85708L4.6224 26.0479ZM2.89052 30.3588L3.56092 28.0461L4.2425 30.3588H2.89052Z" fill="#47A7E3"/>
<path d="M10.0866 26.0483H7.33789V30.5501H9.11447V27.7211H10.0866C10.5558 27.7211 10.9357 27.8782 11.2374 28.1926C11.5279 28.5069 11.6844 28.9223 11.6844 29.4387C11.6844 29.9551 11.5391 30.3705 11.2374 30.6848C10.9469 30.9992 10.5558 31.1563 10.0866 31.1563H9.91895H9.11447H7.33789V32.8291H10.0866C11.0139 32.8291 11.7961 32.5035 12.4218 31.8524C13.0475 31.2013 13.3604 30.393 13.3604 29.4387C13.3604 28.4732 13.0475 27.6649 12.4218 27.025C11.8073 26.3739 11.0251 26.0483 10.0866 26.0483Z" fill="#47A7E3"/>
<path d="M16.9244 26.0483H14.1758V27.7211H15.9524H16.6451H16.9356C17.4049 27.7211 17.7848 27.8782 18.0865 28.1926C18.377 28.5069 18.5334 28.9223 18.5334 29.4387C18.5334 29.9551 18.3882 30.3705 18.0865 30.6848C17.796 30.9992 17.4049 31.1563 16.9356 31.1563H15.9635V28.3273H14.187V32.8291H16.9356C17.863 32.8291 18.6452 32.5035 19.2709 31.8524C19.8966 31.2013 20.2094 30.393 20.2094 29.4387C20.2094 28.4732 19.8966 27.6649 19.2709 27.025C18.634 26.3739 17.8518 26.0483 16.9244 26.0483Z" fill="#47A7E3"/>
<path d="M52.2324 27.7211H53.9084V32.8291H55.6291V27.7211H57.3052V26.0483H52.2324V27.7211Z" fill="#303030"/>
<path d="M62.5357 29.977C62.424 29.73 62.2452 29.528 62.0106 29.3708C61.7759 29.2136 61.5525 29.0901 61.3513 29.0116C61.1502 28.933 60.8932 28.8319 60.558 28.7421C60.0999 28.6074 59.7982 28.4839 59.6418 28.3829C59.4854 28.2818 59.4072 28.1584 59.4072 28.0012C59.4072 27.8665 59.463 27.7654 59.5636 27.6756C59.6641 27.597 59.8206 27.5521 60.0329 27.5521C60.5245 27.5521 60.8709 27.7991 61.0832 28.3043L62.5357 27.4511C62.3011 26.9459 61.9659 26.5642 61.5301 26.2948C61.0943 26.0253 60.5915 25.9019 60.0217 25.9019C59.3513 25.9019 58.7926 26.0927 58.3457 26.4856C57.8987 26.8786 57.6753 27.3837 57.6753 28.0124C57.6753 28.5962 57.8541 29.0452 58.2116 29.3708C58.5692 29.6964 59.0608 29.9546 59.6753 30.1342C60.1111 30.2577 60.3904 30.3475 60.5245 30.3924C60.8262 30.5159 60.9826 30.6731 60.9826 30.8751C60.9826 31.1783 60.7144 31.3354 60.1893 31.3354C59.5524 31.3354 59.1055 31.0323 58.8597 30.4373L57.3848 31.3017C57.5747 31.8182 57.8987 32.2335 58.368 32.5366C58.8373 32.8398 59.4295 32.9969 60.1446 32.9969C60.9156 32.9969 61.5413 32.8061 62.0106 32.4356C62.4799 32.0651 62.7145 31.5375 62.7145 30.8751C62.7033 30.5159 62.6474 30.224 62.5357 29.977Z" fill="#303030"/>
<path d="M32.7128 26.0483H30.6122L28.3887 32.8291H30.2658L30.5563 31.8524H32.8022L33.0927 32.8291H34.9586L32.7128 26.0483ZM30.9921 30.3593L31.6625 28.0466L32.3441 30.3593H30.9921Z" fill="#303030"/>
<path d="M49.2377 30.2021H51.5618V28.608H49.2377V27.6649H51.7965V26.0483H47.5059V32.8291H51.8523V31.2012H49.2377V30.2021Z" fill="#303030"/>
<path d="M46.9133 26.0483H44.9915L43.1479 28.8998V26.0483H41.416V32.8291H43.1479V29.798L45.0809 32.8291H47.0139L44.7792 29.3489L46.9133 26.0483Z" fill="#303030"/>
<path d="M39.4166 30.3256C39.7742 30.1235 40.0535 29.8541 40.2547 29.5173C40.4558 29.1805 40.5675 28.81 40.5675 28.3947C40.5675 27.7211 40.3329 27.1598 39.8636 26.7107C39.3943 26.2729 38.8245 26.0483 38.1317 26.0483H38.02H37.7518H37.1596H35.9976H35.4277V32.8291H37.1596V30.6399H37.7742L38.9474 32.8291H40.8022L39.4166 30.3256ZM38.6457 28.9672C38.5116 29.1131 38.3328 29.1805 38.1205 29.1693H37.1596V28.7202V27.6425H37.763H38.0311H38.1205C38.3328 27.6425 38.5116 27.7098 38.6457 27.8558C38.7798 28.0017 38.8468 28.1814 38.8468 28.4059C38.8468 28.6416 38.7798 28.8213 38.6457 28.9672Z" fill="#303030"/>
</svg>
