<svg width="296" height="196" viewBox="0 0 296 196" fill="none" xmlns="http://www.w3.org/2000/svg">
<path d="M274.148 36.7446C288.763 49.7507 295.813 66.6097 294.978 87.0367C294.25 107.559 285.904 126.477 270.049 143.886L223.309 195.206L153.114 132.738L183.288 99.6081L227.88 139.291L244.446 121.102C252.373 112.397 256.534 103.163 256.822 93.3042C257.109 83.4455 253.3 75.1159 245.406 68.0907C237.512 61.0655 228.733 58.1927 218.844 59.5073C209.074 60.6919 200.219 65.7491 192.173 74.5837L128.986 143.962C119.52 154.356 109.293 162.191 98.2001 167.373C97.5134 167.703 96.7084 168.163 95.9151 168.398C89.0601 171.471 81.9316 173.36 74.3997 174.42C69.2246 175.225 64.3094 175.32 59.5241 175.06C46.1752 174.236 34.2559 169.51 23.7664 160.881L19.7126 157.273C6.42426 144.507 0.0142444 128.217 0.802579 108.69C1.53082 88.1678 9.87618 69.2495 25.732 51.84L72.4712 0.520828L142.666 62.9881L112.493 96.1182L68.0075 56.5303L51.4417 74.7194C43.5138 83.4241 39.3528 92.6584 39.0653 102.517C38.7778 112.376 42.587 120.705 50.4813 127.731C58.3756 134.756 67.1545 137.629 77.0432 136.314C86.8135 135.129 95.6684 130.072 103.715 121.238L166.901 51.8593C182.757 34.4497 200.917 24.2655 221.488 21.4015C241.94 18.6674 259.533 23.7385 274.148 36.7446Z" fill="url(#paint0_linear_11036_29199)"/>
<defs>
<linearGradient id="paint0_linear_11036_29199" x1="57.2661" y1="17.2158" x2="236.634" y2="180.576" gradientUnits="userSpaceOnUse">
<stop stop-color="#B5DFFF"/>
<stop offset="0.322917" stop-color="#B5DFFF" stop-opacity="0.677083"/>
<stop offset="1" stop-color="#B5DFFF" stop-opacity="0"/>
</linearGradient>
</defs>
</svg>
