<svg width="30" height="30" viewBox="0 0 30 30" fill="none" xmlns="http://www.w3.org/2000/svg">
<path d="M29.7004 4.64883L12.6004 21.8988L6.15039 15.4488L8.40039 13.3488L12.6004 17.5488L27.6004 2.54883L29.7004 4.64883Z" fill="#46A4E0"/>
<path d="M28.8 9.9L26.7 12C27 12.9 27.15 13.95 27.15 15C27.15 21.9 21.6 27.3 14.85 27.3C7.95 27.3 2.55 21.75 2.55 15C2.55 8.1 8.1 2.7 14.85 2.7C17.25 2.7 19.65 3.45 21.6 4.65L23.55 2.7C21.15 1.05 18.15 0 15 0C6.75 0 0 6.75 0 15C0 23.25 6.75 30 15 30C23.25 30 30 23.25 30 15C29.7 13.2 29.4 11.4 28.8 9.9Z" fill="#46A4E0"/>
</svg>
