<svg width="53" height="20" viewBox="0 0 53 20" fill="none" xmlns="http://www.w3.org/2000/svg">
<path fill-rule="evenodd" clip-rule="evenodd" d="M31.3406 10.9354C29.1143 11.0064 27.7638 11.3971 27.7638 12.8175C27.7638 13.7408 28.5303 14.7351 30.4282 14.7351C32.983 14.7351 34.37 13.3857 34.37 11.1485V10.8999C33.4575 10.8999 32.3261 10.9354 31.3406 10.9354ZM36.7789 13.8828C36.7789 14.5575 36.8153 15.2677 36.8518 15.8714H34.589C34.516 15.3743 34.5159 14.8771 34.5159 14.38C33.275 15.8359 31.8151 16.262 29.8077 16.262C26.8149 16.262 25.209 14.6996 25.209 12.924C25.209 10.3317 27.3989 9.40846 31.1947 9.33744C32.2166 9.30193 33.3845 9.30193 34.37 9.30193V9.05335C34.37 7.31332 33.2385 6.60311 31.2311 6.60311C29.7712 6.60311 28.6763 7.20679 28.5669 8.20109H26.012C26.2675 5.64432 29.0413 5.00513 31.4501 5.00513C34.3335 5.00513 36.8153 5.99943 36.8153 8.98233V13.8828H36.7789Z" fill="white" fill-opacity="0.7"/>
<path fill-rule="evenodd" clip-rule="evenodd" d="M10.2085 9.69243C10.099 7.45526 8.45652 6.63851 6.70463 6.63851C4.80674 6.63851 3.27389 7.56179 3.0184 9.69243H10.2085ZM2.98187 11.2549C3.12786 13.4211 4.62429 14.6994 6.74116 14.6994C8.20107 14.6994 9.47848 14.1313 9.91645 12.8529H12.4348C11.9603 15.4097 9.14996 16.2619 6.77761 16.2619C2.43437 16.2619 0.5 13.9182 0.5 10.7933C0.5 7.31321 2.5074 5.04053 6.81414 5.04053C10.2449 5.04053 12.7997 6.78055 12.7997 10.6157V11.2549H2.98187Z" fill="white" fill-opacity="0.7"/>
<path fill-rule="evenodd" clip-rule="evenodd" d="M19.041 14.6639C21.3039 14.6639 22.8733 13.0659 22.8733 10.6867C22.8733 8.27198 21.3039 6.7095 19.041 6.7095C16.7782 6.7095 15.2087 8.30749 15.2087 10.6867C15.2452 13.0659 16.8147 14.6639 19.041 14.6639ZM12.7999 0.885742H15.2453V6.85155C16.4497 5.46663 18.0921 5.07601 19.698 5.07601C22.4354 5.07601 25.4282 6.85155 25.4282 10.7222C25.4282 13.9537 23.0193 16.2974 19.625 16.2974C17.8366 16.2974 16.1942 15.6937 15.1722 14.4508C15.1722 14.948 15.1357 15.4451 15.0992 15.9068H12.6904C12.7269 15.1611 12.7634 14.2023 12.7634 13.4565V0.885742H12.7999Z" fill="white" fill-opacity="0.7"/>
<path fill-rule="evenodd" clip-rule="evenodd" d="M49.2248 5.46655L41.6698 19.8839H38.9325L41.1224 15.8712L35.4287 5.46655H38.2755L42.4728 13.5985L46.6335 5.46655H49.2248Z" fill="white" fill-opacity="0.7"/>
<path fill-rule="evenodd" clip-rule="evenodd" d="M50.3194 5.43115H50.5384V5.71524H50.8304V5.85728H50.5384V6.46096C50.5384 6.5675 50.5749 6.63852 50.6844 6.63852C50.7209 6.63852 50.7939 6.63852 50.8304 6.63852V6.78056C50.7574 6.78056 50.6844 6.78056 50.6479 6.78056C50.4289 6.78056 50.3194 6.70954 50.3194 6.49647V5.89279H50.0273V5.71524H50.3194V5.43115Z" fill="white" fill-opacity="0.7"/>
<path fill-rule="evenodd" clip-rule="evenodd" d="M51.0857 5.96377C51.0857 5.89275 51.0857 5.82173 51.0857 5.7152H51.2682C51.2682 5.75071 51.2682 5.82173 51.2682 5.89275C51.3777 5.75071 51.5236 5.67969 51.7061 5.67969C51.8886 5.67969 52.0346 5.75071 52.0711 5.92826C52.1441 5.78622 52.3266 5.67969 52.5091 5.67969C52.801 5.67969 52.9836 5.82173 52.9836 6.14133V6.7095H52.7645V6.21235C52.7645 5.96377 52.6916 5.78622 52.4726 5.78622C52.2901 5.78622 52.1076 5.89275 52.1076 6.24786V6.7095H51.8886V6.17684C51.8886 5.89275 51.7791 5.78622 51.5966 5.78622C51.4141 5.78622 51.2316 5.92826 51.2316 6.21235V6.7095H51.0127V5.96377H51.0857Z" fill="white" fill-opacity="0.7"/>
</svg>
