<svg width="47" height="23" viewBox="0 0 47 23" fill="none" xmlns="http://www.w3.org/2000/svg">
<path fill-rule="evenodd" clip-rule="evenodd" d="M0.724467 0.997946C0.724467 0.749371 0.797465 0.571817 1.12595 0.571817C1.45443 0.571817 4.70273 0.678349 6.8926 0.678349C11.4183 0.678349 12.5133 0.323242 13.3162 0.323242C13.7542 0.323242 13.8272 0.642839 13.8272 0.855903C13.8272 1.03346 13.6082 1.45959 13.6082 1.95674C13.6082 2.4894 13.7177 3.02206 13.7177 3.4837C13.7177 3.94534 13.3162 4.08738 13.0972 4.08738C12.8782 4.08738 12.7322 4.01636 12.7322 3.62574C12.6957 2.88001 13.2797 1.77918 7.76855 1.77918C4.95822 1.77918 4.88522 2.09878 4.88522 2.95104C4.88522 3.8388 4.92172 6.71517 4.92172 7.1413C4.92172 7.60294 5.06771 7.70947 5.43268 7.70947C5.79766 7.70947 8.68099 7.70947 9.44744 7.70947C10.2139 7.70947 11.0169 7.28335 11.1263 6.21802C11.1628 5.64985 11.3088 5.61434 11.6008 5.61434C11.8928 5.61434 12.1483 5.82741 12.1118 6.36007C12.0753 6.89273 11.9658 7.4609 11.9658 8.24214C11.9658 9.02337 12.1118 9.7691 12.1118 10.3373C12.1118 10.9054 11.3453 11.012 11.1993 10.4438C11.0534 9.84012 10.8344 8.81031 9.08247 8.81031C7.33057 8.81031 5.90716 8.81031 5.50568 8.81031C5.10421 8.81031 4.92172 9.02337 4.92172 9.66256C4.92172 10.3018 4.92172 13.3557 4.92172 14.1014C4.92172 14.8826 5.1772 15.6994 6.78311 15.6994C8.38901 15.6994 11.3088 15.8769 12.6228 14.8471C13.2067 14.3855 13.3527 13.7463 13.5717 12.7165C13.6812 12.2193 14.7396 12.2548 14.6666 13.3557C14.6301 13.8528 14.1192 14.9892 14.1192 15.6639C14.1192 16.2676 14.2652 17.0488 13.6812 17.0488C13.2067 17.0488 13.3892 16.8002 11.3088 16.8002C9.22846 16.8002 2.0019 16.8357 0.797467 16.8357C0.359493 16.8357 0.25 16.7292 0.25 16.4451C0.25 16.161 0.395991 15.9835 0.797467 15.9835C1.16245 15.9835 2.76835 16.019 2.76835 14.0304C2.76835 12.0418 2.76835 4.76208 2.76835 3.69676C2.76835 2.63144 2.51286 1.56612 1.16245 1.42407C0.687974 1.45959 0.724467 1.24652 0.724467 0.997946Z" fill="white" fill-opacity="0.7"/>
<path fill-rule="evenodd" clip-rule="evenodd" d="M15.4336 7.24787C15.4336 6.92828 15.6161 6.78623 16.0176 6.64419C16.784 6.3601 17.6965 5.50785 18.4629 3.48373C18.7184 2.84454 19.5213 3.02209 19.4119 3.66129C19.3024 4.30048 19.1564 5.50785 19.1564 6.18255C19.5213 6.18255 22.1492 6.18255 22.4777 6.18255C22.8062 6.18255 22.8791 6.57317 22.8791 6.89277C22.8791 7.21236 22.7697 7.46094 22.5142 7.46094C22.2222 7.46094 19.1929 7.46094 19.1929 7.46094C19.1929 7.46094 19.1929 11.0475 19.1929 13.0716C19.1929 15.0957 19.8863 15.5574 20.8718 15.5574C21.4192 15.5574 21.8572 15.3443 22.2952 15.0602C22.5872 14.8472 23.2076 15.3443 22.8791 15.7349C22.5872 16.1256 21.4922 17.2619 19.9228 17.2619C18.3534 17.2619 17.222 16.1256 17.2585 14.2435C17.295 12.3614 17.368 9.20096 17.368 8.77483C17.368 8.3487 16.784 7.70951 16.1271 7.70951C15.5431 7.70951 15.4336 7.46094 15.4336 7.24787Z" fill="white" fill-opacity="0.7"/>
<path fill-rule="evenodd" clip-rule="evenodd" d="M28.9378 5.86301C30.0327 5.86301 30.8356 6.21812 31.2006 6.21812C31.5656 6.21812 31.7116 5.79199 32.0766 5.79199C32.478 5.79199 32.551 6.21812 32.4415 6.60874C32.332 6.96385 32.259 7.85161 32.332 8.8104C32.332 9.13 32.0766 9.34307 31.7846 9.34307C31.4926 9.34307 31.4196 9.23653 31.2736 8.70387C31.1641 8.20672 30.6896 6.96385 28.8283 6.96385C27.4778 6.96385 26.9669 7.85161 26.9669 8.41979C26.9669 8.98796 27.2954 9.52062 28.7188 10.1243C30.2152 10.7635 32.989 11.4382 32.989 14.0305C32.8795 16.4807 30.4342 17.2264 28.9742 17.2264C27.7333 17.2264 26.6019 16.8713 26.0909 16.8713C25.58 16.8713 25.3975 17.2975 25.069 17.2975C24.7405 17.2975 24.5215 16.9424 24.631 16.5873C24.7405 16.2321 24.923 15.9481 24.923 15.5574C24.923 15.2023 24.704 14.3146 24.8135 13.6044C24.923 12.8941 25.9084 12.7876 25.9084 13.4978C25.9084 14.1725 26.2004 16.1611 28.7918 16.1611C30.8721 16.1611 31.0911 14.7407 31.0911 14.3501C31.0911 13.8529 30.9816 13.1427 28.4998 12.1839C26.0179 11.2251 25.0325 10.3374 25.0325 8.8104C25.142 7.28344 26.5289 5.86301 28.9378 5.86301Z" fill="white" fill-opacity="0.7"/>
<path fill-rule="evenodd" clip-rule="evenodd" d="M33.7549 6.50208C33.7549 6.2535 33.7549 6.14697 34.0469 6.14697C34.3389 6.14697 35.7623 6.18248 36.5652 6.18248C37.3317 6.18248 38.7551 6.14697 39.0471 6.14697C39.266 6.14697 39.193 6.39555 39.193 6.5731C39.193 6.75066 39.2295 7.03474 38.8646 7.03474C38.4996 7.03474 37.8061 7.14127 37.8061 7.74496C37.8061 8.34864 37.9521 8.49068 38.2076 9.12987C38.4631 9.84009 40.361 14.1014 40.361 14.1014C40.361 14.1014 41.8574 11.1185 42.2954 10.3017C42.7333 9.44947 43.0253 8.41966 43.0253 7.95802C43.0253 7.49638 42.5143 7.17678 42.1129 7.10576C41.7114 7.03474 41.4924 7.03474 41.4924 6.5731C41.4924 6.32453 41.5289 6.18248 41.7479 6.18248C41.9669 6.18248 43.2078 6.25351 44.1202 6.25351C45.0327 6.25351 46.0911 6.18248 46.4196 6.18248C46.7116 6.18248 46.6021 6.39555 46.6021 6.60861C46.6021 6.78617 46.5656 6.99923 46.3466 7.03474C46.0911 7.07025 45.0327 7.03474 43.9378 9.30743C42.8428 11.6156 40.6165 16.232 39.0106 19.2504C38.1711 20.8484 36.6382 22.5529 34.9958 22.5529C34.1564 22.5529 33.8279 21.8427 33.8279 21.4876C33.8279 21.1325 34.0469 20.5643 34.9958 20.5643C35.6528 20.5643 35.7988 20.8484 36.1272 20.8484C36.7842 20.8484 38.3901 19.3215 38.8646 16.6226C38.9376 15.9834 38.2806 14.4565 38.0251 13.7818C37.6601 12.752 36.4922 9.76907 35.6528 8.02904C35.3608 7.42536 34.5943 7.10576 34.1199 7.07025C33.7914 6.96372 33.7549 6.8927 33.7549 6.50208Z" fill="white" fill-opacity="0.7"/>
</svg>
