<svg width="158" height="45" viewBox="0 0 158 45" fill="none" xmlns="http://www.w3.org/2000/svg">
<path d="M154.519 39C156.14 39 157.545 40.2857 157.545 42C157.545 43.6071 156.248 45 154.519 45C152.898 45 151.493 43.7143 151.493 42C151.601 40.3929 152.898 39 154.519 39Z" fill="#E97522" fill-opacity="0.5"/>
<path d="M132.797 39C134.419 39 135.823 40.2857 135.823 42C135.823 43.6071 134.527 45 132.797 45C131.176 45 129.771 43.7143 129.771 42C129.88 40.3929 131.176 39 132.797 39Z" fill="#E97522" fill-opacity="0.5"/>
<path d="M111.075 39C112.696 39 114.101 40.2857 114.101 42C114.101 43.6071 112.804 45 111.075 45C109.346 45 108.049 43.7143 108.049 42C108.049 40.3929 109.454 39 111.075 39Z" fill="#E97522" fill-opacity="0.5"/>
<path d="M89.3522 39C90.9732 39 92.3782 40.2857 92.3782 42C92.3782 43.6071 91.0813 45 89.3522 45C87.7311 45 86.3262 43.7143 86.3262 42C86.3262 40.3929 87.623 39 89.3522 39Z" fill="#E97522" fill-opacity="0.5"/>
<path d="M67.5221 39C69.1432 39 70.5481 40.2857 70.5481 42C70.5481 43.6071 69.2512 45 67.5221 45C65.901 45 64.4961 43.7143 64.4961 42C64.6042 40.3929 65.901 39 67.5221 39Z" fill="#E97522" fill-opacity="0.5"/>
<path d="M154.519 19.5C156.14 19.5 157.545 20.7857 157.545 22.5C157.545 24.1071 156.248 25.5 154.519 25.5C152.898 25.5 151.493 24.2143 151.493 22.5C151.601 20.8929 152.898 19.5 154.519 19.5Z" fill="#E97522" fill-opacity="0.5"/>
<path d="M132.797 19.5C134.419 19.5 135.823 20.7857 135.823 22.5C135.823 24.1071 134.527 25.5 132.797 25.5C131.176 25.5 129.771 24.2143 129.771 22.5C129.88 20.8929 131.176 19.5 132.797 19.5Z" fill="#E97522" fill-opacity="0.5"/>
<path d="M111.075 19.5C112.696 19.5 114.101 20.7857 114.101 22.5C114.101 24.1071 112.804 25.5 111.075 25.5C109.346 25.5 108.049 24.2143 108.049 22.5C108.049 20.8929 109.454 19.5 111.075 19.5Z" fill="#E97522" fill-opacity="0.5"/>
<path d="M89.3522 19.5C90.9732 19.5 92.3782 20.7857 92.3782 22.5C92.3782 24.1071 91.0813 25.5 89.3522 25.5C87.7311 25.5 86.3262 24.2143 86.3262 22.5C86.3262 20.8929 87.623 19.5 89.3522 19.5Z" fill="#E97522" fill-opacity="0.5"/>
<path d="M67.5221 19.5C69.1432 19.5 70.5481 20.7857 70.5481 22.5C70.5481 24.1071 69.2512 25.5 67.5221 25.5C65.901 25.5 64.4961 24.2143 64.4961 22.5C64.6042 20.8929 65.901 19.5 67.5221 19.5Z" fill="#E97522" fill-opacity="0.5"/>
<path d="M154.519 0C156.14 0 157.545 1.28571 157.545 3C157.545 4.60714 156.248 6 154.519 6C152.898 6 151.493 4.71429 151.493 3C151.601 1.28571 152.898 0 154.519 0Z" fill="#E97522" fill-opacity="0.5"/>
<path d="M132.797 0C134.419 0 135.823 1.28571 135.823 3C135.823 4.60714 134.527 6 132.797 6C131.176 6 129.771 4.71429 129.771 3C129.88 1.28571 131.176 0 132.797 0Z" fill="#E97522" fill-opacity="0.5"/>
<path d="M111.075 0C112.696 0 114.101 1.28571 114.101 3C114.101 4.60714 112.804 6 111.075 6C109.346 6 108.049 4.71429 108.049 3C108.049 1.28571 109.454 0 111.075 0Z" fill="#E97522" fill-opacity="0.5"/>
<path d="M89.3522 0C90.9732 0 92.3782 1.28571 92.3782 3C92.3782 4.60714 91.0813 6 89.3522 6C87.7311 6 86.3262 4.71429 86.3262 3C86.3262 1.28571 87.623 0 89.3522 0Z" fill="#E97522" fill-opacity="0.5"/>
<path d="M67.5221 0C69.1432 0 70.5481 1.28571 70.5481 3C70.5481 4.60714 69.2512 6 67.5221 6C65.901 6 64.4961 4.71429 64.4961 3C64.6042 1.28571 65.901 0 67.5221 0Z" fill="#E97522" fill-opacity="0.5"/>
<path d="M46.4703 39C48.0914 39 49.4963 40.2857 49.4963 42C49.4963 43.6071 48.1995 45 46.4703 45C44.8493 45 43.4443 43.7143 43.4443 42C43.5524 40.3929 44.8493 39 46.4703 39Z" fill="#E97522" fill-opacity="0.5"/>
<path d="M24.7486 39C26.3697 39 27.7746 40.2857 27.7746 42C27.7746 43.6071 26.4778 45 24.7486 45C23.1276 45 21.7227 43.7143 21.7227 42C21.7227 40.3929 23.1276 39 24.7486 39Z" fill="#E97522" fill-opacity="0.5"/>
<path d="M3.02599 39C4.64706 39 6.05198 40.2857 6.05198 42C6.05198 43.6071 4.75513 45 3.02599 45C1.29685 45 0 43.6071 0 42C0 40.3929 1.29685 39 3.02599 39Z" fill="#E97522" fill-opacity="0.5"/>
<path d="M46.4703 19.5C48.0914 19.5 49.4963 20.7857 49.4963 22.5C49.4963 24.1071 48.1995 25.5 46.4703 25.5C44.8493 25.5 43.4443 24.2143 43.4443 22.5C43.5524 20.8929 44.8493 19.5 46.4703 19.5Z" fill="#E97522" fill-opacity="0.5"/>
<path d="M24.7486 19.5C26.3697 19.5 27.7746 20.7857 27.7746 22.5C27.7746 24.1071 26.4778 25.5 24.7486 25.5C23.1276 25.5 21.7227 24.2143 21.7227 22.5C21.7227 20.8929 23.1276 19.5 24.7486 19.5Z" fill="#E97522" fill-opacity="0.5"/>
<path d="M3.02599 19.5C4.64706 19.5 6.05198 20.7857 6.05198 22.5C6.05198 24.1071 4.75513 25.5 3.02599 25.5C1.29685 25.3929 0 24.1071 0 22.5C0 20.8929 1.29685 19.5 3.02599 19.5Z" fill="#E97522" fill-opacity="0.5"/>
<path d="M46.4703 0C48.0914 0 49.4963 1.28571 49.4963 3C49.4963 4.60714 48.1995 6 46.4703 6C44.8493 6 43.4443 4.71429 43.4443 3C43.5524 1.28571 44.8493 0 46.4703 0Z" fill="#E97522" fill-opacity="0.5"/>
<path d="M24.7486 0C26.3697 0 27.7746 1.28571 27.7746 3C27.7746 4.60714 26.4778 6 24.7486 6C23.1276 6 21.7227 4.71429 21.7227 3C21.7227 1.28571 23.1276 0 24.7486 0Z" fill="#E97522" fill-opacity="0.5"/>
<path d="M3.02599 0C4.64706 0 6.05198 1.28571 6.05198 3C6.05198 4.60714 4.75513 6 3.02599 6C1.29685 5.89286 0 4.60714 0 3C0 1.28571 1.29685 0 3.02599 0Z" fill="#E97522" fill-opacity="0.5"/>
</svg>
