<svg width="61" height="21" viewBox="0 0 61 21" fill="none" xmlns="http://www.w3.org/2000/svg">
<path fill-rule="evenodd" clip-rule="evenodd" d="M8.56596 6.3544C7.909 5.53765 6.96005 4.96948 5.53664 4.96948C2.61683 4.96948 0.5 7.31319 0.5 10.2606C0.5 13.2435 2.61683 15.5517 5.53664 15.5517C6.92355 15.5517 7.90901 15.019 8.52947 14.2378V14.9125C8.52947 16.5815 7.17906 17.3272 5.79215 17.3272C4.62423 17.3272 3.52929 17.0431 2.54386 16.4395L1.04746 18.9252C2.36138 19.813 4.18625 20.2391 6.01113 20.2391C9.58789 20.2391 11.9237 18.1795 11.9237 14.7349V5.28908H9.22293L8.56596 6.3544ZM6.33962 12.5333C4.9892 12.5333 4.04025 11.5745 4.04025 10.2961C4.04025 9.01771 4.95271 8.05892 6.33962 8.05892C7.65353 8.05892 8.56596 9.01771 8.56596 10.2961C8.56596 11.5745 7.65353 12.5333 6.33962 12.5333Z" fill="white" fill-opacity="0.7"/>
<path fill-rule="evenodd" clip-rule="evenodd" d="M18.859 4.96948C15.5742 4.96948 13.1289 7.3487 13.1289 10.5447C13.1289 13.7406 15.5742 16.1199 18.859 16.1199C22.1438 16.1199 24.5892 13.7406 24.5892 10.5447C24.5892 7.3487 22.1803 4.96948 18.859 4.96948ZM18.859 12.9949C17.5451 12.9949 16.5962 12.0006 16.5962 10.5802C16.5962 9.15975 17.5816 8.16545 18.859 8.16545C20.173 8.16545 21.1584 9.15975 21.1584 10.5802C21.1584 11.9651 20.173 12.9949 18.859 12.9949Z" fill="white" fill-opacity="0.7"/>
<path fill-rule="evenodd" clip-rule="evenodd" d="M31.5231 4.96948C28.2383 4.96948 25.793 7.3487 25.793 10.5447C25.793 13.7406 28.2383 16.1199 31.5231 16.1199C34.8079 16.1199 37.2533 13.7406 37.2533 10.5447C37.2533 7.3487 34.8444 4.96948 31.5231 4.96948ZM31.5231 12.9949C30.2092 12.9949 29.2603 12.0006 29.2603 10.5802C29.2603 9.15975 30.2092 8.16545 31.5231 8.16545C32.8371 8.16545 33.8225 9.15975 33.8225 10.5802C33.8225 12.0006 32.8736 12.9949 31.5231 12.9949Z" fill="white" fill-opacity="0.7"/>
<path fill-rule="evenodd" clip-rule="evenodd" d="M45.9035 6.56746C45.2465 5.82173 44.2976 5.28907 42.9107 5.28907C40.0274 5.28907 37.874 7.66829 37.874 10.7222C37.874 13.7761 39.9909 16.1554 42.9107 16.1554C44.3706 16.1554 45.356 15.5872 46.013 14.7704L46.6699 15.8713H49.3342V0.885742H45.9035V6.56746ZM43.7136 13.0659C42.3267 13.0659 41.4143 12.0361 41.4143 10.7222C41.4143 9.37281 42.3267 8.343 43.7136 8.343C45.064 8.343 46.013 9.3373 46.013 10.7222C46.013 12.0716 45.064 13.0659 43.7136 13.0659Z" fill="white" fill-opacity="0.7"/>
<path fill-rule="evenodd" clip-rule="evenodd" d="M56.7795 9.19528L56.0131 9.08875C54.9912 8.9112 54.3342 8.80467 54.3342 8.37854C54.3342 7.98792 54.6627 7.73934 55.5386 7.73934C56.4511 7.73934 57.546 8.02343 58.495 8.37854L59.8819 5.9283C58.1665 5.25359 57.1081 5.04053 55.3927 5.04053C52.5458 5.04053 50.8669 6.31891 50.8669 8.5916C50.8669 10.4737 52.0348 11.539 54.5532 11.9296L55.1736 12.0006C56.3416 12.1782 56.816 12.3557 56.816 12.7464C56.816 13.208 56.3781 13.4211 55.3561 13.4211C54.0422 13.4211 52.9108 13.1015 51.9254 12.5688L50.502 15.0546C51.7064 15.8358 53.5312 16.1554 55.3196 16.1554C58.349 16.1554 60.1374 14.7705 60.1374 12.4268C60.1739 10.6157 59.0059 9.55039 56.7795 9.19528Z" fill="white" fill-opacity="0.7"/>
</svg>
