<svg width="52" height="52" viewBox="0 0 52 52" fill="none" xmlns="http://www.w3.org/2000/svg">
<path fill-rule="evenodd" clip-rule="evenodd" d="M47.7873 10.932C47.1939 9.42111 46.4117 8.13959 45.1306 6.85806C43.8494 5.57654 42.5683 4.79413 41.0578 4.20059C39.6014 3.63402 37.9291 3.2563 35.4747 3.1349C33.0203 3.02698 32.2381 3 25.9942 3C19.7503 3 18.9681 3.02698 16.5137 3.1349C14.0728 3.2563 12.4006 3.63402 10.9306 4.21408C9.42021 4.80762 8.13906 5.59003 6.85791 6.87155C5.57676 8.15308 4.79459 9.4346 4.20121 10.9455C3.63481 12.4023 3.25721 14.0751 3.13583 16.5167C3.02795 18.9718 3.00098 19.7543 3.00098 26C3.00098 32.2457 3.02795 33.0282 3.13583 35.4833C3.25721 37.9384 3.63481 39.6111 4.2147 41.068C4.80807 42.5789 5.59025 43.8604 6.8714 45.1419C8.15254 46.4235 9.43369 47.2059 10.9441 47.7994C12.4006 48.366 14.0728 48.7572 16.5272 48.8651C18.9816 48.973 19.7638 49 26.0077 49C32.2516 49 33.0338 48.973 35.4882 48.8651C37.9291 48.7572 39.6014 48.366 41.0713 47.7994C42.5817 47.2059 43.8629 46.4235 45.144 45.1419C46.4252 43.8604 47.2074 42.5789 47.8007 41.068C48.3671 39.6111 48.7582 37.9384 48.8661 35.4833C48.974 33.0282 49.001 32.2457 49.001 26C49.001 19.7543 48.974 18.9718 48.8661 16.5167C48.7447 14.0751 48.3537 12.4023 47.7873 10.932ZM25.9942 37.817C19.4671 37.817 14.1807 32.529 14.1807 26C14.1807 19.471 19.4671 14.183 25.9942 14.183C32.5214 14.183 37.8078 19.471 37.8078 26C37.8078 32.529 32.5214 37.817 25.9942 37.817ZM38.2798 16.4897C36.7559 16.4897 35.5152 15.2487 35.5152 13.7243C35.5152 12.2 36.7559 10.9589 38.2798 10.9589C39.8037 10.9589 41.0444 12.2 41.0444 13.7243C41.0309 15.2487 39.8037 16.4897 38.2798 16.4897ZM33.6676 26C33.6676 30.2358 30.2423 33.6622 26.0077 33.6622C21.7732 33.6622 18.3478 30.2358 18.3478 26C18.3478 21.7642 21.7732 18.3378 26.0077 18.3378C30.2288 18.3378 33.6676 21.7642 33.6676 26Z" fill="#B5DFFF"/>
</svg>
