<svg width="47" height="13" viewBox="0 0 47 13" fill="none" xmlns="http://www.w3.org/2000/svg">
<path d="M34.4035 1.89252C34.4035 1.35985 34.9509 0.898215 35.4984 0.969237C35.8999 1.00475 36.1918 1.32434 36.3743 1.64394C37.6517 3.70356 38.9657 5.76319 40.2796 7.82281C41.63 5.69216 42.9804 3.52601 44.3308 1.39537C44.5133 1.07577 44.9148 0.898215 45.2798 0.969237C45.6812 1.00475 46.0097 1.32434 46.1192 1.71496V11.5514C46.0097 12.0841 45.4258 12.4392 44.8783 12.2972C44.4768 12.1906 44.1483 11.8 44.1848 11.4094C44.1848 9.34977 44.1848 7.32566 44.1848 5.26603C43.1994 6.82851 42.2505 8.39098 41.2285 9.95345C41.046 10.2375 40.7906 10.5571 40.4256 10.6282C40.0241 10.6992 39.6591 10.4506 39.4401 10.131C38.4182 8.49751 37.3962 6.86402 36.3743 5.23052C36.3743 7.29015 36.3743 9.31426 36.3743 11.3739C36.4108 11.9065 35.8999 12.3682 35.3524 12.2972C34.8414 12.2972 34.4035 11.871 34.4035 11.3739C34.4035 8.21343 34.4035 5.05297 34.4035 1.89252ZM25.6805 3.02886C24.0746 3.34846 22.7606 4.83991 22.6877 6.43789C22.6147 7.50321 23.0526 8.60404 23.8921 9.31426C24.695 10.0955 25.863 10.4506 26.9944 10.273C28.1623 10.131 29.1843 9.42079 29.7682 8.462C30.2427 7.68076 30.3522 6.68646 30.1697 5.7987C29.9507 4.8044 29.2573 3.95214 28.3813 3.45499C27.5784 2.95784 26.5929 2.85131 25.6805 3.02886ZM25.3155 1.04026C26.5564 0.827194 27.9068 0.933726 29.0748 1.5019C30.1332 2.03456 31.0456 2.85131 31.6296 3.88112C32.2501 4.94644 32.4691 6.26033 32.2866 7.4677C31.9581 10.06 29.5127 12.2616 26.8119 12.2972C25.644 12.3682 24.4396 12.1196 23.4541 11.4804C22.1767 10.6992 21.1548 9.42079 20.8263 8.00036C20.4978 6.57993 20.6803 5.01746 21.4833 3.77458C22.2862 2.38967 23.7096 1.32434 25.3155 1.04026ZM12.6143 3.02886C10.9719 3.34846 9.65798 4.87542 9.65798 6.50891C9.62148 7.57423 10.0595 8.63955 10.8989 9.31426C11.7019 10.06 12.8698 10.4151 13.9282 10.2375C15.0961 10.0955 16.1546 9.38528 16.7385 8.39098C17.213 7.60974 17.3225 6.68646 17.14 5.83421C16.921 4.8044 16.2276 3.91663 15.3151 3.38397C14.5122 2.95784 13.5267 2.85131 12.6143 3.02886ZM13.0523 0.969237C14.2932 0.898215 15.5341 1.1823 16.5561 1.82149C17.797 2.60273 18.7824 3.84561 19.1109 5.26603C19.4394 6.72197 19.2569 8.31996 18.4174 9.59834C17.7605 10.5926 16.848 11.4094 15.7531 11.871C14.7311 12.3327 13.5267 12.3682 12.4318 12.2261C10.7529 11.9776 9.29299 10.9122 8.41705 9.52732C7.68709 8.42649 7.46811 7.04157 7.6506 5.76318C7.97908 3.20641 10.388 1.04026 13.0523 0.969237ZM4.29283 0.969237C4.87679 0.827194 5.53372 1.28883 5.53372 1.89252C5.53372 4.23622 5.53372 6.54442 5.53372 8.88813C5.53372 9.70487 5.20527 10.5216 4.65781 11.0898C3.89135 11.9421 2.68689 12.4037 1.51896 12.2972C1.08099 12.2261 0.716023 11.8355 0.75252 11.4094C0.75252 10.9833 1.11749 10.5926 1.51896 10.4861C1.77445 10.4506 2.06646 10.4506 2.32194 10.3796C2.9789 10.202 3.48985 9.56283 3.48985 8.88813C3.48985 6.54442 3.48985 4.23622 3.48985 1.89252C3.45335 1.43088 3.81836 1.04026 4.29283 0.969237Z" fill="white" fill-opacity="0.7"/>
</svg>
