<svg width="53" height="19" viewBox="0 0 53 19" fill="none" xmlns="http://www.w3.org/2000/svg">
<path fill-rule="evenodd" clip-rule="evenodd" d="M49.9242 0.430176C49.8079 0.430176 49.8079 0.430176 49.9242 0.430176L49.8079 2.5293C49.8079 2.5293 49.8079 2.63978 49.9242 2.63978H52.1337C52.1337 2.63978 52.25 2.63978 52.25 2.5293V0.540656C52.25 0.540656 52.25 0.430176 52.1337 0.430176H49.9242ZM0.616292 0.430176C0.5 0.430176 0.5 0.430176 0.616292 0.430176L0.5 14.9031C0.5 14.9031 0.5 15.0136 0.616292 15.0136H2.70955C2.70955 15.0136 2.82584 15.0136 2.82584 14.9031V9.37908L8.40787 14.9031H8.52416C8.64045 14.9031 11.5478 14.9031 11.664 14.9031H11.7803V14.7926L5.26798 8.7162L10.9663 4.07603V3.96554C10.9663 3.96554 10.9663 3.85506 10.85 3.85506H7.9427C7.9427 3.85506 7.9427 3.85506 7.8264 3.85506L6.4309 5.29131L2.82584 8.38476V0.540656C2.82584 0.430176 2.82584 0.430176 2.70955 0.430176H0.616292ZM24.8051 6.94851C24.8051 9.04764 26.5494 9.71052 28.2938 10.1524C28.4101 10.1524 28.5264 10.2629 28.9916 10.2629C30.1545 10.4839 31.6663 10.8153 31.6663 11.9201C31.6663 13.2459 29.4567 13.4668 28.5264 13.4668C27.3635 13.4668 26.3169 13.2459 24.9213 13.0249H24.8051C24.8051 13.0249 24.8051 13.0249 24.8051 13.1354V14.7926C24.8051 14.7926 24.8051 14.9031 24.9213 14.9031C26.3169 15.1241 27.5961 15.345 28.759 15.345C32.1315 15.345 34.1084 14.0193 34.1084 11.8096C34.1084 9.37908 31.7826 8.82668 29.8056 8.49524C28.4101 8.05332 27.2472 7.83236 27.2472 6.83803C27.2472 5.73323 28.759 5.51227 30.0382 5.51227C31.2011 5.51227 32.364 5.73323 33.2944 5.84371H33.4107C33.4107 5.84371 33.4107 5.84371 33.4107 5.73323V4.07603C33.4107 4.07603 33.4107 3.96554 33.2944 3.96554H33.0618C32.2478 3.85506 31.0848 3.74458 29.573 3.74458C26.5494 3.74458 24.8051 4.95987 24.8051 6.94851ZM13.0596 4.07603C13.0596 4.07603 13.0596 4.18651 13.0596 4.07603L12.9433 5.73323C12.9433 5.73323 12.9433 5.73323 12.9433 5.84371C12.9433 5.84371 12.9433 5.84371 13.0596 5.84371C14.2225 5.62275 15.618 5.40179 16.7809 5.40179C19.8045 5.40179 19.9208 5.95419 19.9208 8.05332L19.1067 8.1638H18.409C16.0831 8.1638 12.2455 8.1638 12.2455 11.6992C12.2455 14.9031 14.6876 15.345 17.3624 15.345C18.7579 15.345 20.2697 15.345 22.3629 15.1241C22.3629 15.1241 22.4792 15.1241 22.4792 15.0136V7.39043C22.4792 3.96555 20.0371 3.74458 17.1298 3.74458C15.7343 3.74458 14.4551 3.85506 13.0596 4.07603ZM14.6876 11.5887C14.6876 10.042 16.0831 9.71052 18.2927 9.71052H18.9904H20.0371V13.2459H19.223H17.9438C16.432 13.5773 14.6876 13.3564 14.6876 11.5887ZM37.5972 3.85506H36.6669C36.6669 3.85506 36.5506 3.85506 36.5506 3.96554V18.328C36.5506 18.328 36.5506 18.328 36.5506 18.4385C36.5506 18.4385 36.5506 18.4385 36.6669 18.4385H38.8764C38.8764 18.4385 38.9927 18.4385 38.9927 18.328V15.1241C40.0393 15.2345 40.6208 15.2345 41.086 15.2345C42.4815 15.2345 43.6444 14.9031 44.8073 14.2402C46.3191 13.3564 47.2494 11.5887 47.2494 9.2686C47.2494 8.05332 46.9006 5.73323 44.8073 4.40747C43.4118 3.85506 41.9 3.74458 40.3882 3.74458L37.5972 3.85506ZM38.9927 5.62275L40.6208 5.51227C43.2955 5.51227 44.691 6.83803 44.691 9.37908C44.691 12.804 42.5978 13.4668 40.9697 13.4668L38.9927 13.3564V5.62275ZM49.9242 3.96554C49.8079 3.96554 49.8079 3.96554 49.9242 3.96554L49.8079 14.9031C49.8079 14.9031 49.8079 15.0136 49.9242 15.0136H52.1337C52.1337 15.0136 52.25 15.0136 52.25 14.9031V4.07603C52.25 4.07603 52.25 3.96554 52.1337 3.96554H49.9242Z" fill="#C6E1F3"/>
</svg>
