<svg width="89" height="18" viewBox="0 0 89 18" fill="none" xmlns="http://www.w3.org/2000/svg">
<path d="M40.5326 15.4748H43.6714V9.11839C43.6714 5.78038 41.4815 4.00484 38.8172 4.00484C37.0653 4.00484 35.7514 4.75057 34.8024 5.78038H34.3645C33.6345 4.8571 32.3936 4.00484 30.5688 4.00484C28.8899 4.00484 27.5394 4.71506 26.8459 5.56732H26.408V4.32444H23.4881V15.4748H26.627V9.65105C26.627 7.66245 27.2474 6.98774 29.3278 6.98774C31.4082 6.98774 31.9921 7.66245 31.9921 9.65105V15.4748H35.131V9.65105C35.131 7.66245 35.7149 6.98774 37.8318 6.98774C39.9122 6.98774 40.4961 7.66245 40.4961 9.65105L40.5326 15.4748ZM10.9329 13.8768C10.349 13.4862 10.13 12.8825 10.13 11.9948C10.13 10.8939 10.4949 9.50901 11.0789 8.90532C11.4804 8.51471 12.0644 8.30164 12.8673 8.30164C13.9988 8.30164 15.3857 8.58573 15.9696 9.18941C16.3711 9.58003 16.5171 10.1127 16.5171 10.8229C16.5171 11.8882 16.1886 13.3797 15.5316 14.0189C15.1301 14.374 14.6192 14.516 13.8892 14.516C12.8308 14.516 11.5899 14.303 10.9329 13.8768ZM15.8966 16.2205L15.7506 17.2503L18.6704 17.6055L20.0574 6.56162L17.1376 6.20651L16.9915 7.27183H16.6631C16.2251 6.52611 15.0572 5.49629 12.8308 5.49629C9.72849 5.49629 7.46561 7.69796 7.06413 10.7519C7.02764 11.036 6.99116 11.3556 6.99116 11.6397C6.99116 14.5515 8.99852 16.9307 12.1738 17.2503C12.3563 17.2503 12.5389 17.2859 12.6848 17.2859C13.9988 17.2859 14.9842 16.7177 15.4952 16.256H15.8966V16.2205ZM82.2496 12.9535C79.9137 12.9535 79.1108 12.2078 79.1108 9.89962C79.1108 7.62694 79.8772 6.81019 82.2496 6.81019C84.5854 6.81019 85.3884 7.59143 85.3884 9.89962C85.3884 12.2078 84.5854 12.9535 82.2496 12.9535ZM67.176 12.9535C64.8401 12.9535 64.0372 12.2078 64.0372 9.89962C64.0372 7.62694 64.8036 6.81019 67.176 6.81019C69.5118 6.81019 70.3148 7.59143 70.3148 9.89962C70.2783 12.2078 69.5118 12.9535 67.176 12.9535ZM52.4674 12.9535C50.1316 12.9535 49.3286 12.2078 49.3286 9.89962C49.3286 7.62694 50.0951 6.81019 52.4674 6.81019C54.8033 6.81019 55.6062 7.59143 55.6062 9.89962C55.6062 12.2078 54.8033 12.9535 52.4674 12.9535ZM2.64796 0.560303L0.75 15.4393L3.85231 15.7944L5.71373 0.91541L2.64796 0.560303ZM85.4979 14.4095V15.4748H88.4177V4.32444H85.4979V5.38976H85.0599C84.5854 4.78608 83.4175 4.00484 81.8116 4.00484C78.3078 4.00484 75.9354 6.59713 75.9354 9.89962C75.9354 13.2021 78.3078 15.7944 81.8116 15.7944C83.4175 15.7944 84.5854 15.0132 85.0599 14.4095H85.4979ZM52.4674 4.00484C48.5987 4.00484 46.1897 6.59713 46.1897 9.89962C46.1897 13.2021 48.5987 15.7944 52.4674 15.7944C56.3727 15.7944 58.7815 13.2376 58.7815 9.89962C58.7815 6.59713 56.3727 4.00484 52.4674 4.00484ZM70.4608 14.4095V15.4748H73.3806V0.702346H70.2783V5.42527H69.8403C69.3658 4.82159 68.3074 4.04035 66.738 4.04035C63.2342 4.04035 60.8619 6.63264 60.8619 9.93514C60.8619 13.2376 63.2707 15.8299 66.738 15.8299C68.3439 15.8299 69.5848 15.0487 70.0228 14.445H70.4608V14.4095Z" fill="white" fill-opacity="0.7"/>
</svg>
