<svg width="274" height="30" viewBox="0 0 274 30" fill="none" xmlns="http://www.w3.org/2000/svg">
<path d="M113.689 0.62207L121.187 0.62207L121.187 29.3775H113.689L113.689 13.8863L106.494 25.4474H105.755L98.6272 13.9518L98.6272 29.3775H91.0625L91.0625 0.62207H98.6272L106.125 12.9037L113.689 0.62207Z" fill="white" fill-opacity="0.9"/>
<path d="M19.4171 0.62207H10.2051L0.455078 29.3775H8.65853L9.93611 25.2181H19.7534L21.0309 29.3775H29.1671L19.4171 0.62207ZM11.8525 18.8972L14.8111 9.1046L17.8034 18.8972H11.8525Z" fill="white" fill-opacity="0.9"/>
<path d="M43.3219 0.62207L31.3193 0.62207L31.3193 19.716H39.0857L39.0857 7.72906H43.3555C45.4064 7.72906 47.0874 8.38408 48.365 9.72688C49.6426 11.0697 50.315 12.8055 50.315 14.9998C50.315 17.1941 49.6762 18.9627 48.365 20.2727C47.0538 21.6155 45.4064 22.2705 43.3555 22.2705H42.6159H39.1193H31.3193L31.3193 29.3775H43.3555C47.4236 29.3775 50.853 28.002 53.5762 25.2509C56.3331 22.4998 57.678 19.0937 57.678 14.9998C57.678 10.9059 56.2995 7.4998 53.5762 4.74871C50.8193 1.99762 47.4236 0.62207 43.3219 0.62207Z" fill="white" fill-opacity="0.9"/>
<path d="M73.21 0.62207L61.1738 0.62207V7.72906H68.9402H71.9661H73.21C75.2609 7.72906 76.9419 8.38408 78.2195 9.72687C79.4971 11.0697 80.1695 12.8055 80.1695 14.9998C80.1695 17.1941 79.5307 18.9627 78.2195 20.2727C76.9083 21.6155 75.2609 22.2705 73.21 22.2705H68.9402L68.9402 10.2836H61.1738L61.1738 29.3775H73.21C77.2781 29.3775 80.7074 28.002 83.4307 25.2509C86.1876 22.4998 87.5324 19.0937 87.5324 14.9998C87.5324 10.9059 86.154 7.4998 83.4307 4.74871C80.7074 1.99762 77.2781 0.62207 73.21 0.62207Z" fill="white" fill-opacity="0.9"/>
<path d="M227.664 7.72906H234.96V29.3775H242.524V7.72906H249.82V0.62207L227.664 0.62207V7.72906Z" fill="white" fill-opacity="0.9"/>
<path d="M272.682 17.2926C272.178 16.2445 271.404 15.3603 270.362 14.7052C269.32 14.0502 268.379 13.5262 267.505 13.1659C266.63 12.8057 265.487 12.4127 264.042 12.0197C262.058 11.4301 260.713 10.9389 260.007 10.5131C259.301 10.0873 258.965 9.53057 258.965 8.9083C258.965 8.35153 259.2 7.89301 259.671 7.5655C260.142 7.20524 260.814 7.04148 261.722 7.04148C263.873 7.04148 265.386 8.12227 266.328 10.2511L272.648 6.64847C271.64 4.51965 270.161 2.8821 268.244 1.76856C266.361 0.556769 264.142 0 261.688 0C258.763 0 256.309 0.818777 254.359 2.45633C252.409 4.09389 251.434 6.25546 251.434 8.9083C251.434 11.3646 252.207 13.2969 253.787 14.6725C255.367 16.048 257.486 17.1288 260.209 17.9148C262.125 18.4389 263.369 18.7991 263.907 19.0284C265.218 19.5524 265.891 20.2402 265.891 21.0917C265.891 22.369 264.748 23.024 262.428 23.024C259.637 23.024 257.687 21.7467 256.611 19.1921L250.156 22.8603C250.963 25.0546 252.409 26.7904 254.46 28.0677C256.511 29.345 259.099 30 262.226 30C265.588 30 268.311 29.214 270.362 27.6092C272.413 26.0044 273.455 23.81 273.455 20.9935C273.455 19.5852 273.186 18.3406 272.682 17.2926Z" fill="white" fill-opacity="0.9"/>
<path d="M142.301 0.62207H133.089L123.339 29.4103H131.542L132.82 25.2509H142.637L143.915 29.4103H152.051L142.301 0.62207ZM134.736 18.8972L137.695 9.1046L140.687 18.8972H134.736Z" fill="white" fill-opacity="0.9"/>
<path d="M214.552 18.2422H224.705V11.4627H214.552V7.46705H225.748V0.62207L206.987 0.62207V29.3775H225.983V22.4998H214.552V18.2422Z" fill="white" fill-opacity="0.9"/>
<path d="M204.398 0.62207H195.959L187.924 12.7072V0.62207H180.359V29.3775H187.924V16.5391L196.396 29.3775H204.835L195.052 14.6068L204.398 0.62207Z" fill="white" fill-opacity="0.9"/>
<path d="M171.618 18.733C173.165 17.8814 174.375 16.7352 175.283 15.2941C176.191 13.8531 176.628 12.281 176.628 10.5452C176.628 7.6631 175.619 5.30502 173.568 3.40546C171.517 1.53865 168.996 0.588867 166.003 0.588867H165.533H164.356L161.734 0.588867H156.657H154.169V29.3771H161.734V20.1085H164.423L169.567 29.4098H177.67L171.618 18.733ZM168.189 13.0015C167.584 13.5911 166.844 13.8858 165.903 13.8531H161.734V11.9862V7.40109H164.356H165.533H165.903C166.844 7.40109 167.584 7.69585 168.189 8.31813C168.794 8.90764 169.063 9.69367 169.063 10.6762C169.097 11.5932 168.794 12.3793 168.189 13.0015Z" fill="white" fill-opacity="0.9"/>
</svg>
