<svg width="34" height="34" viewBox="0 0 34 34" fill="none" xmlns="http://www.w3.org/2000/svg">
<path fill-rule="evenodd" clip-rule="evenodd" d="M3 17C3 24.713 9.28698 31 17 31C24.8594 31 31 24.7197 31 17C31 9.28698 24.713 3 17 3C9.28698 3 3 9.28698 3 17ZM2 17C2 25.2653 8.73469 32 17 32C25.4184 32 32 25.2653 32 17C32 8.7347 25.2653 2 17 2C8.73469 2 2 8.7347 2 17Z" fill="#56AEDB"/>
<rect x="11.5" y="12.2002" width="10.9091" height="1.4" rx="0.4" fill="#56AEDB"/>
<rect x="11.5" y="16.2905" width="10.9091" height="1.4" rx="0.4" fill="#56AEDB"/>
<rect x="11.5" y="20.3817" width="10.9091" height="1.4" rx="0.4" fill="#56AEDB"/>
</svg>
