<svg width="34" height="34" viewBox="0 0 34 34" fill="none" xmlns="http://www.w3.org/2000/svg">
<path d="M23.1425 11.0312H11.3568C10.5915 11.0312 9.82617 11.6435 9.82617 12.5619V21.4394C9.82617 22.2047 10.4384 22.97 11.3568 22.97H23.1425C23.9078 22.97 24.6731 22.3578 24.6731 21.4394V12.5619C24.6731 11.6435 23.9078 11.0312 23.1425 11.0312ZM23.1425 21.2864H11.3568V13.9394L16.8021 17.2904C17.1235 17.4882 17.5289 17.4882 17.8503 17.2904L23.2956 13.9394V21.2864H23.1425ZM17.8633 15.8328C17.5359 16.0452 17.1149 16.0476 16.7849 15.8392L11.3568 12.4088H23.1425L17.8633 15.8328Z" fill="#56AEDB"/>
<path fill-rule="evenodd" clip-rule="evenodd" d="M3.17188 17C3.17188 24.713 9.45885 31 17.1719 31C25.0313 31 31.1719 24.7197 31.1719 17C31.1719 9.28698 24.8849 3 17.1719 3C9.45885 3 3.17188 9.28698 3.17188 17ZM2.17188 17C2.17188 25.2653 8.90657 32 17.1719 32C25.5902 32 32.1719 25.2653 32.1719 17C32.1719 8.7347 25.4372 2 17.1719 2C8.90657 2 2.17188 8.7347 2.17188 17Z" fill="#56AEDB"/>
</svg>
