<svg width="57" height="13" viewBox="0 0 57 13" fill="none" xmlns="http://www.w3.org/2000/svg">
<path fill-rule="evenodd" clip-rule="evenodd" d="M7.31239 0.827259C4.72106 0.578684 2.23922 1.92809 1.10779 4.20078C-0.0236409 6.47346 0.450847 9.20779 2.31223 11.0188C4.13711 12.7944 6.94738 13.2915 9.28323 12.1907C11.6191 11.0899 13.0425 8.71064 12.7505 6.18938C12.495 3.34852 10.2322 1.11134 7.31239 0.827259ZM7.1299 9.918C5.74299 10.0956 4.3926 9.38535 3.77214 8.17798C3.15168 6.97062 3.40714 5.47916 4.39258 4.52037C5.37802 3.56158 6.91094 3.31301 8.15186 3.91669C9.42928 4.52038 10.1227 5.83427 9.94021 7.18368C9.75772 8.60411 8.58981 9.74045 7.1299 9.918ZM16.0718 1.07583C15.6339 1.07583 15.2324 1.25339 14.9769 1.6085C14.7214 1.92809 14.6119 2.35422 14.6849 2.78035C14.8309 3.41954 15.4514 3.88118 16.1448 3.88118H20.123L13.9184 11.8711C13.6994 12.1197 13.9185 12.5103 14.247 12.5103H23.9918C24.6853 12.5103 25.3057 12.0486 25.4517 11.4095C25.5247 10.9833 25.4517 10.5572 25.1597 10.2376C24.9042 9.91801 24.4663 9.70494 24.0648 9.70494H19.2106L25.4152 1.71503C25.6342 1.46645 25.4152 1.07583 25.0867 1.07583H16.0718ZM55.0149 1.07583C54.3579 1.21788 53.8834 1.82156 53.8834 2.46075V7.11266L46.1459 1.11134C45.8904 0.89828 45.4889 1.07583 45.4889 1.43094V11.0188C45.4889 11.6935 45.9269 12.2617 46.6204 12.4038C47.0583 12.5103 47.4963 12.4038 47.8248 12.1197C48.1533 11.8711 48.3723 11.445 48.3723 11.0188V6.40244L56.1098 12.4038C56.3653 12.6168 56.7668 12.4393 56.7668 12.0842V2.46075C56.7668 2.03462 56.5843 1.64401 56.2193 1.35992C55.8908 1.11134 55.4163 1.00481 55.0149 1.07583ZM34.8681 3.5971C38.1529 3.5971 40.5983 5.2661 40.5983 6.79306C40.5983 8.28451 38.1529 9.98903 34.8681 9.98903C31.5834 9.98903 29.138 8.32002 29.138 6.79306C29.138 5.2661 31.5834 3.5971 34.8681 3.5971ZM34.8681 0.791748C30.1234 0.791748 26.2912 3.45505 26.2912 6.75755C26.2912 10.06 30.1234 12.7234 34.8681 12.7234C39.6128 12.7234 43.4451 10.06 43.4451 6.75755C43.4451 3.45505 39.6128 0.791748 34.8681 0.791748Z" fill="white" fill-opacity="0.7"/>
</svg>
