<svg width="45" height="482" viewBox="0 0 45 482" fill="none" xmlns="http://www.w3.org/2000/svg">
<path d="M6.00098 154.519C6.00098 156.14 4.71526 157.545 3.00098 157.545C1.39383 157.545 0.000976348 156.248 0.000976426 154.519C0.000976499 152.898 1.28669 151.493 3.00098 151.493C4.60812 151.601 6.00098 152.898 6.00098 154.519Z" fill="#316594" fill-opacity="0.5"/>
<path d="M6.00098 132.797C6.00098 134.419 4.71526 135.823 3.00098 135.823C1.39383 135.823 0.000976348 134.527 0.000976426 132.797C0.000976499 131.176 1.28669 129.771 3.00098 129.771C4.60812 129.88 6.00098 131.176 6.00098 132.797Z" fill="#316594" fill-opacity="0.5"/>
<path d="M6.00098 111.075C6.00098 112.696 4.71526 114.101 3.00098 114.101C1.39383 114.101 0.000976348 112.804 0.000976426 111.075C0.000976504 109.346 1.28669 108.049 3.00098 108.049C4.60812 108.049 6.00098 109.454 6.00098 111.075Z" fill="#316594" fill-opacity="0.5"/>
<path d="M6.00098 89.3522C6.00098 90.9732 4.71526 92.3782 3.00098 92.3782C1.39383 92.3782 0.000976348 91.0813 0.000976426 89.3522C0.000976499 87.7311 1.28669 86.3262 3.00098 86.3262C4.60812 86.3262 6.00098 87.623 6.00098 89.3522Z" fill="#316594" fill-opacity="0.5"/>
<path d="M6.00098 67.5221C6.00098 69.1432 4.71526 70.5481 3.00098 70.5481C1.39383 70.5481 0.000976348 69.2512 0.000976426 67.5221C0.000976499 65.901 1.28669 64.4961 3.00098 64.4961C4.60812 64.6042 6.00098 65.901 6.00098 67.5221Z" fill="#316594" fill-opacity="0.5"/>
<path d="M25.501 154.519C25.501 156.14 24.2153 157.545 22.501 157.545C20.8938 157.545 19.501 156.248 19.501 154.519C19.501 152.898 20.7867 151.493 22.501 151.493C24.1081 151.601 25.501 152.898 25.501 154.519Z" fill="#316594" fill-opacity="0.5"/>
<path d="M25.501 132.797C25.501 134.419 24.2153 135.823 22.501 135.823C20.8938 135.823 19.501 134.527 19.501 132.797C19.501 131.176 20.7867 129.771 22.501 129.771C24.1081 129.88 25.501 131.176 25.501 132.797Z" fill="#316594" fill-opacity="0.5"/>
<path d="M25.501 111.075C25.501 112.696 24.2153 114.101 22.501 114.101C20.8938 114.101 19.501 112.804 19.501 111.075C19.501 109.346 20.7867 108.049 22.501 108.049C24.1081 108.049 25.501 109.454 25.501 111.075Z" fill="#316594" fill-opacity="0.5"/>
<path d="M25.501 89.3522C25.501 90.9732 24.2153 92.3782 22.501 92.3782C20.8938 92.3782 19.501 91.0813 19.501 89.3522C19.501 87.7311 20.7867 86.3262 22.501 86.3262C24.1081 86.3262 25.501 87.623 25.501 89.3522Z" fill="#F4BA91"/>
<path d="M25.501 67.5221C25.501 69.1432 24.2153 70.5481 22.501 70.5481C20.8938 70.5481 19.501 69.2512 19.501 67.5221C19.501 65.901 20.7867 64.4961 22.501 64.4961C24.1081 64.6042 25.501 65.901 25.501 67.5221Z" fill="#F4BA91"/>
<path d="M45.001 154.519C45.001 156.14 43.7153 157.545 42.001 157.545C40.3938 157.545 39.001 156.248 39.001 154.519C39.001 152.898 40.2867 151.493 42.001 151.493C43.7153 151.601 45.001 152.898 45.001 154.519Z" fill="#316594" fill-opacity="0.5"/>
<path d="M45.001 132.797C45.001 134.419 43.7153 135.823 42.001 135.823C40.3938 135.823 39.001 134.527 39.001 132.797C39.001 131.176 40.2867 129.771 42.001 129.771C43.7153 129.88 45.001 131.176 45.001 132.797Z" fill="#316594" fill-opacity="0.5"/>
<path d="M45.001 111.075C45.001 112.696 43.7153 114.101 42.001 114.101C40.3938 114.101 39.001 112.804 39.001 111.075C39.001 109.346 40.2867 108.049 42.001 108.049C43.7153 108.049 45.001 109.454 45.001 111.075Z" fill="#316594" fill-opacity="0.5"/>
<path d="M45.001 89.3522C45.001 90.9732 43.7153 92.3782 42.001 92.3782C40.3938 92.3782 39.001 91.0813 39.001 89.3522C39.001 87.7311 40.2867 86.3262 42.001 86.3262C43.7153 86.3262 45.001 87.623 45.001 89.3522Z" fill="#316594" fill-opacity="0.5"/>
<path d="M45.001 67.5221C45.001 69.1432 43.7153 70.5481 42.001 70.5481C40.3938 70.5481 39.001 69.2512 39.001 67.5221C39.001 65.901 40.2867 64.4961 42.001 64.4961C43.7153 64.6042 45.001 65.901 45.001 67.5221Z" fill="#F4BA91"/>
<path d="M6.00098 46.4713C6.00098 48.0924 4.71526 49.4973 3.00098 49.4973C1.39383 49.4973 0.000976353 48.2004 0.000976429 46.4713C0.000976501 44.8502 1.28669 43.4453 3.00098 43.4453C4.60812 43.5534 6.00098 44.8502 6.00098 46.4713Z" fill="#316594" fill-opacity="0.5"/>
<path d="M6.00098 24.7486C6.00098 26.3697 4.71526 27.7746 3.00098 27.7746C1.39383 27.7746 0.000976353 26.4778 0.000976429 24.7486C0.000976501 23.1276 1.28669 21.7227 3.00098 21.7227C4.60812 21.7227 6.00098 23.1276 6.00098 24.7486Z" fill="#316594" fill-opacity="0.5"/>
<path d="M6.00098 3.02599C6.00098 4.64706 4.71526 6.05198 3.00098 6.05198C1.39383 6.05198 0.000976353 4.75513 0.000976429 3.02599C0.000976505 1.29685 1.39383 -2.00116e-07 3.00098 -1.30308e-07C4.60812 -6.05003e-08 6.00098 1.29685 6.00098 3.02599Z" fill="#316594" fill-opacity="0.5"/>
<path d="M25.501 46.4713C25.501 48.0924 24.2153 49.4973 22.501 49.4973C20.8938 49.4973 19.501 48.2004 19.501 46.4713C19.501 44.8502 20.7867 43.4453 22.501 43.4453C24.1081 43.5534 25.501 44.8502 25.501 46.4713Z" fill="#F4BA91"/>
<path d="M25.501 24.7486C25.501 26.3697 24.2153 27.7746 22.501 27.7746C20.8938 27.7746 19.501 26.4778 19.501 24.7486C19.501 23.1276 20.7867 21.7227 22.501 21.7227C24.1081 21.7227 25.501 23.1276 25.501 24.7486Z" fill="#F4BA91"/>
<path d="M25.501 3.02599C25.501 4.64706 24.2153 6.05198 22.501 6.05198C20.8938 6.05198 19.501 4.75513 19.501 3.02599C19.6081 1.29685 20.8938 -2.00116e-07 22.501 -1.30308e-07C24.1081 -6.05001e-08 25.501 1.29685 25.501 3.02599Z" fill="#316594" fill-opacity="0.5"/>
<path d="M45.001 46.4713C45.001 48.0924 43.7153 49.4973 42.001 49.4973C40.3938 49.4973 39.001 48.2004 39.001 46.4713C39.001 44.8502 40.2867 43.4453 42.001 43.4453C43.7153 43.5534 45.001 44.8502 45.001 46.4713Z" fill="#316594" fill-opacity="0.5"/>
<path d="M45.001 24.7486C45.001 26.3697 43.7153 27.7746 42.001 27.7746C40.3938 27.7746 39.001 26.4778 39.001 24.7486C39.001 23.1276 40.2867 21.7227 42.001 21.7227C43.7153 21.7227 45.001 23.1276 45.001 24.7486Z" fill="#316594" fill-opacity="0.5"/>
<path d="M45.001 3.02599C45.001 4.64706 43.7153 6.05198 42.001 6.05198C40.3938 6.05198 39.001 4.75513 39.001 3.02599C39.1081 1.29685 40.3938 -2.00116e-07 42.001 -1.30308e-07C43.7153 -5.58464e-08 45.001 1.29685 45.001 3.02599Z" fill="#316594" fill-opacity="0.5"/>
<path d="M6.00098 327.519C6.00098 329.14 4.71526 330.545 3.00098 330.545C1.39383 330.545 0.000976348 329.248 0.000976426 327.519C0.000976499 325.898 1.28669 324.493 3.00098 324.493C4.60812 324.601 6.00098 325.898 6.00098 327.519Z" fill="#316594" fill-opacity="0.5"/>
<path d="M6.00098 305.797C6.00098 307.419 4.71526 308.823 3.00098 308.823C1.39383 308.823 0.000976348 307.527 0.000976426 305.797C0.000976499 304.176 1.28669 302.771 3.00098 302.771C4.60812 302.88 6.00098 304.176 6.00098 305.797Z" fill="#316594" fill-opacity="0.5"/>
<path d="M6.00098 284.075C6.00098 285.696 4.71526 287.101 3.00098 287.101C1.39383 287.101 0.000976348 285.804 0.000976426 284.075C0.000976504 282.346 1.28669 281.049 3.00098 281.049C4.60812 281.049 6.00098 282.454 6.00098 284.075Z" fill="#316594" fill-opacity="0.5"/>
<path d="M6.00098 262.352C6.00098 263.973 4.71526 265.378 3.00098 265.378C1.39383 265.378 0.000976348 264.081 0.000976426 262.352C0.000976499 260.731 1.28669 259.326 3.00098 259.326C4.60812 259.326 6.00098 260.623 6.00098 262.352Z" fill="#316594" fill-opacity="0.5"/>
<path d="M6.00098 240.522C6.00098 242.143 4.71526 243.548 3.00098 243.548C1.39383 243.548 0.000976348 242.251 0.000976426 240.522C0.000976499 238.901 1.28669 237.496 3.00098 237.496C4.60812 237.604 6.00098 238.901 6.00098 240.522Z" fill="#F4BA91"/>
<path d="M25.501 327.519C25.501 329.14 24.2153 330.545 22.501 330.545C20.8938 330.545 19.501 329.248 19.501 327.519C19.501 325.898 20.7867 324.493 22.501 324.493C24.1081 324.601 25.501 325.898 25.501 327.519Z" fill="#316594" fill-opacity="0.5"/>
<path d="M25.501 305.797C25.501 307.419 24.2153 308.823 22.501 308.823C20.8938 308.823 19.501 307.527 19.501 305.797C19.501 304.176 20.7867 302.771 22.501 302.771C24.1081 302.88 25.501 304.176 25.501 305.797Z" fill="#316594" fill-opacity="0.5"/>
<path d="M25.501 284.075C25.501 285.696 24.2153 287.101 22.501 287.101C20.8938 287.101 19.501 285.804 19.501 284.075C19.501 282.346 20.7867 281.049 22.501 281.049C24.1081 281.049 25.501 282.454 25.501 284.075Z" fill="#F4BA91"/>
<path d="M25.501 262.352C25.501 263.973 24.2153 265.378 22.501 265.378C20.8938 265.378 19.501 264.081 19.501 262.352C19.501 260.731 20.7867 259.326 22.501 259.326C24.1081 259.326 25.501 260.623 25.501 262.352Z" fill="#F4BA91"/>
<path d="M25.501 240.522C25.501 242.143 24.2153 243.548 22.501 243.548C20.8938 243.548 19.501 242.251 19.501 240.522C19.501 238.901 20.7867 237.496 22.501 237.496C24.1081 237.604 25.501 238.901 25.501 240.522Z" fill="#F4BA91"/>
<path d="M45.001 327.519C45.001 329.14 43.7153 330.545 42.001 330.545C40.3938 330.545 39.001 329.248 39.001 327.519C39.001 325.898 40.2867 324.493 42.001 324.493C43.7153 324.601 45.001 325.898 45.001 327.519Z" fill="#316594" fill-opacity="0.5"/>
<path d="M45.001 305.797C45.001 307.419 43.7153 308.823 42.001 308.823C40.3938 308.823 39.001 307.527 39.001 305.797C39.001 304.176 40.2867 302.771 42.001 302.771C43.7153 302.88 45.001 304.176 45.001 305.797Z" fill="#316594" fill-opacity="0.5"/>
<path d="M45.001 284.075C45.001 285.696 43.7153 287.101 42.001 287.101C40.3938 287.101 39.001 285.804 39.001 284.075C39.001 282.346 40.2867 281.049 42.001 281.049C43.7153 281.049 45.001 282.454 45.001 284.075Z" fill="#316594" fill-opacity="0.5"/>
<path d="M45.001 262.352C45.001 263.973 43.7153 265.378 42.001 265.378C40.3938 265.378 39.001 264.081 39.001 262.352C39.001 260.731 40.2867 259.326 42.001 259.326C43.7153 259.326 45.001 260.623 45.001 262.352Z" fill="#316594" fill-opacity="0.5"/>
<path d="M45.001 240.522C45.001 242.143 43.7153 243.548 42.001 243.548C40.3938 243.548 39.001 242.251 39.001 240.522C39.001 238.901 40.2867 237.496 42.001 237.496C43.7153 237.604 45.001 238.901 45.001 240.522Z" fill="#316594" fill-opacity="0.5"/>
<path d="M6.00098 219.471C6.00098 221.092 4.71526 222.497 3.00098 222.497C1.39383 222.497 0.000976353 221.2 0.000976429 219.471C0.000976501 217.85 1.28669 216.445 3.00098 216.445C4.60812 216.553 6.00098 217.85 6.00098 219.471Z" fill="#F4BA91"/>
<path d="M6.00098 197.749C6.00098 199.37 4.71526 200.775 3.00098 200.775C1.39383 200.775 0.000976353 199.478 0.000976429 197.749C0.000976501 196.128 1.28669 194.723 3.00098 194.723C4.60812 194.723 6.00098 196.128 6.00098 197.749Z" fill="#316594" fill-opacity="0.5"/>
<path d="M6.00098 176.026C6.00098 177.647 4.71526 179.052 3.00098 179.052C1.39383 179.052 0.000976353 177.755 0.000976429 176.026C0.000976505 174.297 1.39383 173 3.00098 173C4.60812 173 6.00098 174.297 6.00098 176.026Z" fill="#316594" fill-opacity="0.5"/>
<path d="M25.501 219.471C25.501 221.092 24.2153 222.497 22.501 222.497C20.8938 222.497 19.501 221.2 19.501 219.471C19.501 217.85 20.7867 216.445 22.501 216.445C24.1081 216.553 25.501 217.85 25.501 219.471Z" fill="#F4BA91"/>
<path d="M25.501 197.749C25.501 199.37 24.2153 200.775 22.501 200.775C20.8938 200.775 19.501 199.478 19.501 197.749C19.501 196.128 20.7867 194.723 22.501 194.723C24.1081 194.723 25.501 196.128 25.501 197.749Z" fill="#316594" fill-opacity="0.5"/>
<path d="M25.501 176.026C25.501 177.647 24.2153 179.052 22.501 179.052C20.8938 179.052 19.501 177.755 19.501 176.026C19.6081 174.297 20.8938 173 22.501 173C24.1081 173 25.501 174.297 25.501 176.026Z" fill="#316594" fill-opacity="0.5"/>
<path d="M45.001 219.471C45.001 221.092 43.7153 222.497 42.001 222.497C40.3938 222.497 39.001 221.2 39.001 219.471C39.001 217.85 40.2867 216.445 42.001 216.445C43.7153 216.553 45.001 217.85 45.001 219.471Z" fill="#316594" fill-opacity="0.5"/>
<path d="M45.001 197.749C45.001 199.37 43.7153 200.775 42.001 200.775C40.3938 200.775 39.001 199.478 39.001 197.749C39.001 196.128 40.2867 194.723 42.001 194.723C43.7153 194.723 45.001 196.128 45.001 197.749Z" fill="#316594" fill-opacity="0.5"/>
<path d="M45.001 176.026C45.001 177.647 43.7153 179.052 42.001 179.052C40.3938 179.052 39.001 177.755 39.001 176.026C39.1081 174.297 40.3938 173 42.001 173C43.7153 173 45.001 174.297 45.001 176.026Z" fill="#316594" fill-opacity="0.5"/>
<path d="M6.00098 457.075C6.00098 458.696 4.71526 460.101 3.00098 460.101C1.39383 460.101 0.000976348 458.804 0.000976426 457.075C0.000976504 455.346 1.28669 454.049 3.00098 454.049C4.60812 454.049 6.00098 455.454 6.00098 457.075Z" fill="#316594" fill-opacity="0.5"/>
<path d="M6.00098 478.747C6.00098 480.368 4.71526 481.773 3.00098 481.773C1.39383 481.773 0.000976348 480.476 0.000976426 478.747C0.000976504 477.018 1.28669 475.721 3.00098 475.721C4.60812 475.721 6.00098 477.126 6.00098 478.747Z" fill="#316594" fill-opacity="0.5"/>
<path d="M6.00098 435.352C6.00098 436.973 4.71526 438.378 3.00098 438.378C1.39383 438.378 0.000976348 437.081 0.000976426 435.352C0.000976499 433.731 1.28669 432.326 3.00098 432.326C4.60812 432.326 6.00098 433.623 6.00098 435.352Z" fill="#316594" fill-opacity="0.5"/>
<path d="M6.00098 413.522C6.00098 415.143 4.71526 416.548 3.00098 416.548C1.39383 416.548 0.000976348 415.251 0.000976426 413.522C0.000976499 411.901 1.28669 410.496 3.00098 410.496C4.60812 410.604 6.00098 411.901 6.00098 413.522Z" fill="#316594" fill-opacity="0.5"/>
<path d="M25.501 457.075C25.501 458.696 24.2153 460.101 22.501 460.101C20.8938 460.101 19.501 458.804 19.501 457.075C19.501 455.346 20.7867 454.049 22.501 454.049C24.1081 454.049 25.501 455.454 25.501 457.075Z" fill="#F4BA91"/>
<path d="M25.501 478.747C25.501 480.368 24.2153 481.773 22.501 481.773C20.8938 481.773 19.501 480.476 19.501 478.747C19.501 477.018 20.7867 475.721 22.501 475.721C24.1081 475.721 25.501 477.126 25.501 478.747Z" fill="#316594" fill-opacity="0.5"/>
<path d="M25.501 435.352C25.501 436.973 24.2153 438.378 22.501 438.378C20.8938 438.378 19.501 437.081 19.501 435.352C19.501 433.731 20.7867 432.326 22.501 432.326C24.1081 432.326 25.501 433.623 25.501 435.352Z" fill="#F4BA91"/>
<path d="M25.501 413.522C25.501 415.143 24.2153 416.548 22.501 416.548C20.8938 416.548 19.501 415.251 19.501 413.522C19.501 411.901 20.7867 410.496 22.501 410.496C24.1081 410.604 25.501 411.901 25.501 413.522Z" fill="#316594" fill-opacity="0.5"/>
<path d="M45.001 457.075C45.001 458.696 43.7153 460.101 42.001 460.101C40.3938 460.101 39.001 458.804 39.001 457.075C39.001 455.346 40.2867 454.049 42.001 454.049C43.7153 454.049 45.001 455.454 45.001 457.075Z" fill="#F4BA91"/>
<path d="M45.001 478.747C45.001 480.368 43.7153 481.773 42.001 481.773C40.3938 481.773 39.001 480.476 39.001 478.747C39.001 477.018 40.2867 475.721 42.001 475.721C43.7153 475.721 45.001 477.126 45.001 478.747Z" fill="#F4BA91"/>
<path d="M45.001 435.352C45.001 436.973 43.7153 438.378 42.001 438.378C40.3938 438.378 39.001 437.081 39.001 435.352C39.001 433.731 40.2867 432.326 42.001 432.326C43.7153 432.326 45.001 433.623 45.001 435.352Z" fill="#F4BA91"/>
<path d="M45.001 413.522C45.001 415.143 43.7153 416.548 42.001 416.548C40.3938 416.548 39.001 415.251 39.001 413.522C39.001 411.901 40.2867 410.496 42.001 410.496C43.7153 410.604 45.001 411.901 45.001 413.522Z" fill="#316594" fill-opacity="0.5"/>
<path d="M6.00098 392.471C6.00098 394.092 4.71526 395.497 3.00098 395.497C1.39383 395.497 0.000976353 394.2 0.000976429 392.471C0.000976501 390.85 1.28669 389.445 3.00098 389.445C4.60812 389.553 6.00098 390.85 6.00098 392.471Z" fill="#316594" fill-opacity="0.5"/>
<path d="M6.00098 370.749C6.00098 372.37 4.71526 373.775 3.00098 373.775C1.39383 373.775 0.000976353 372.478 0.000976429 370.749C0.000976501 369.128 1.28669 367.723 3.00098 367.723C4.60812 367.723 6.00098 369.128 6.00098 370.749Z" fill="#316594" fill-opacity="0.5"/>
<path d="M6.00098 349.026C6.00098 350.647 4.71526 352.052 3.00098 352.052C1.39383 352.052 0.000976353 350.755 0.000976429 349.026C0.000976505 347.297 1.39383 346 3.00098 346C4.60812 346 6.00098 347.297 6.00098 349.026Z" fill="#316594" fill-opacity="0.5"/>
<path d="M25.501 392.471C25.501 394.092 24.2153 395.497 22.501 395.497C20.8938 395.497 19.501 394.2 19.501 392.471C19.501 390.85 20.7867 389.445 22.501 389.445C24.1081 389.553 25.501 390.85 25.501 392.471Z" fill="#316594" fill-opacity="0.5"/>
<path d="M25.501 370.749C25.501 372.37 24.2153 373.775 22.501 373.775C20.8938 373.775 19.501 372.478 19.501 370.749C19.501 369.128 20.7867 367.723 22.501 367.723C24.1081 367.723 25.501 369.128 25.501 370.749Z" fill="#316594" fill-opacity="0.5"/>
<path d="M25.501 349.026C25.501 350.647 24.2153 352.052 22.501 352.052C20.8938 352.052 19.501 350.755 19.501 349.026C19.6081 347.297 20.8938 346 22.501 346C24.1081 346 25.501 347.297 25.501 349.026Z" fill="#316594" fill-opacity="0.5"/>
<path d="M45.001 392.471C45.001 394.092 43.7153 395.497 42.001 395.497C40.3938 395.497 39.001 394.2 39.001 392.471C39.001 390.85 40.2867 389.445 42.001 389.445C43.7153 389.553 45.001 390.85 45.001 392.471Z" fill="#316594" fill-opacity="0.5"/>
<path d="M45.001 370.749C45.001 372.37 43.7153 373.775 42.001 373.775C40.3938 373.775 39.001 372.478 39.001 370.749C39.001 369.128 40.2867 367.723 42.001 367.723C43.7153 367.723 45.001 369.128 45.001 370.749Z" fill="#316594" fill-opacity="0.5"/>
<path d="M45.001 349.026C45.001 350.647 43.7153 352.052 42.001 352.052C40.3938 352.052 39.001 350.755 39.001 349.026C39.1081 347.297 40.3938 346 42.001 346C43.7153 346 45.001 347.297 45.001 349.026Z" fill="#316594" fill-opacity="0.5"/>
</svg>
