<svg width="42" height="12" viewBox="0 0 42 12" fill="none" xmlns="http://www.w3.org/2000/svg">
<path fill-rule="evenodd" clip-rule="evenodd" d="M8.06074 2.73886H6.89282C4.52046 2.73886 2.51307 8.56262 5.28691 8.56262H7.07531C8.09725 8.56262 8.86371 8.91772 8.53523 9.91202L8.06074 11.2614H6.16287H4.62995C2.65907 11.2614 1.38164 10.3026 0.907168 8.8467C0.396198 7.28423 1.12616 4.05275 3.17004 1.95762C4.37447 0.750254 5.98037 0.0400391 8.09725 0.0400391H11.966L11.3455 1.74455C10.9441 2.84539 10.1411 2.77437 9.70314 2.77437H8.06074V2.73886Z" fill="white" fill-opacity="0.7"/>
<path fill-rule="evenodd" clip-rule="evenodd" d="M29.4844 4.30176C27.696 4.30176 25.0317 4.30176 23.2433 4.30176C22.2214 4.30176 21.7469 4.58584 21.5644 5.15402L20.9805 7.00057C22.7689 7.00057 25.4332 7.00057 27.2216 7.00057C28.28 7.00057 28.718 6.71649 28.9005 6.14832L29.4844 4.30176Z" fill="white" fill-opacity="0.7"/>
<path fill-rule="evenodd" clip-rule="evenodd" d="M30.945 0.0405273C29.1566 0.0405273 26.4923 0.0405273 24.7039 0.0405273C23.682 0.0405273 23.2075 0.324613 23.025 0.892785L22.4411 2.73934C24.2294 2.73934 26.8938 2.73934 28.6822 2.73934C29.7041 2.73934 30.1786 2.45526 30.3611 1.88709L30.945 0.0405273ZM27.9522 8.5631C26.1638 8.5631 23.4995 8.5631 21.7111 8.5631C20.6892 8.5631 20.2147 8.84719 20.0322 9.41536L19.4482 11.2619C21.2366 11.2619 23.901 11.2619 25.6894 11.2619C26.7113 11.2619 27.1858 10.9778 27.3683 10.4097L27.9522 8.5631Z" fill="white" fill-opacity="0.7"/>
<path fill-rule="evenodd" clip-rule="evenodd" d="M15.214 2.73921H16.7834C18.0974 2.73921 17.8054 4.3727 17.1484 5.93518C16.5644 7.32009 15.506 8.56297 14.2651 8.56297H11.6738C10.6518 8.56297 10.1773 8.84706 9.95836 9.41523L9.33789 11.2618H11.2358H13.0972C14.7396 11.2618 16.09 11.1197 17.6594 9.73482C19.3383 8.27888 21.2727 4.44372 20.9442 2.24206C20.6887 0.502033 19.7397 0.00488281 17.4404 0.00488281H13.2432L10.7978 6.96499H12.3307C13.2432 6.96499 13.7176 6.96499 14.1921 5.6866L15.214 2.73921Z" fill="white" fill-opacity="0.7"/>
<path fill-rule="evenodd" clip-rule="evenodd" d="M28.4268 11.2974H31.3831L32.6605 7.74636L33.9744 6.64552L35.0328 9.84149C35.3613 10.8358 35.6898 11.2619 36.4197 11.2619H38.6826L36.3102 5.01203L41.9309 0.0405273H38.3176L34.9233 3.5916C34.5219 4.01773 34.1204 4.40835 33.7189 4.9055H33.6824L35.3978 0.0760382H32.4415L28.4268 11.2974Z" fill="white" fill-opacity="0.7"/>
</svg>
