<svg width="93" height="36" viewBox="0 0 93 36" fill="none" xmlns="http://www.w3.org/2000/svg">
<path d="M89.9725 30C91.5927 30 92.9968 31.2857 92.9968 33C92.9968 34.6071 91.7007 36 89.9725 36C88.3524 36 86.9482 34.7143 86.9482 33C87.0563 31.2857 88.3524 30 89.9725 30Z" fill="#E97522"/>
<path d="M68.2626 30C69.8828 30 71.2869 31.2857 71.2869 33C71.2869 34.6071 69.9908 36 68.2626 36C66.6424 36 65.2383 34.7143 65.2383 33C65.3463 31.2857 66.6424 30 68.2626 30Z" fill="#E97522"/>
<path d="M46.5526 30C48.1728 30 49.5769 31.2857 49.5769 33C49.5769 34.6071 48.2808 36 46.5526 36C44.8244 36 43.5283 34.7143 43.5283 33C43.5283 31.2857 44.9325 30 46.5526 30Z" fill="#E97522"/>
<path d="M89.9755 15C91.5956 15 92.9998 16.2857 92.9998 18C92.9998 19.6071 91.7036 21 89.9755 21C88.2473 21 86.9512 19.7143 86.9512 18C86.9512 16.2857 88.3553 15 89.9755 15Z" fill="#E97522"/>
<path d="M24.8427 30C26.4628 30 27.867 31.2857 27.867 33C27.867 34.6071 26.5708 36 24.8427 36C23.2225 36 21.8184 34.7143 21.8184 33C21.8184 31.2857 23.1145 30 24.8427 30Z" fill="#E97522"/>
<path d="M45.9999 15C47.62 15 49.0242 16.2857 49.0242 18C49.0242 19.6071 47.7281 21 45.9999 21C44.3797 21 42.9756 19.7143 42.9756 18C42.9756 16.2857 44.2717 15 45.9999 15Z" fill="#E97522"/>
<path d="M45.9999 0C47.62 0 49.0242 1.28571 49.0242 3C49.0242 4.60714 47.7281 6 45.9999 6C44.3797 6 42.9756 4.71429 42.9756 3C42.9756 1.28571 44.2717 0 45.9999 0Z" fill="#E97522"/>
<path d="M3.0243 30C4.64446 30 6.0486 31.2857 6.0486 33C6.0486 34.6071 4.75248 36 3.0243 36C1.40414 36 0 34.7143 0 33C0.108011 31.2857 1.40414 30 3.0243 30Z" fill="#E97522"/>
<path d="M25.0116 15C26.6318 15 28.0359 16.2857 28.0359 18C28.0359 19.6071 26.7398 21 25.0116 21C23.3914 21 21.9873 19.7143 21.9873 18C22.0953 16.2857 23.3914 15 25.0116 15Z" fill="#E97522"/>
</svg>
