<svg width="52" height="52" viewBox="0 0 52 52" fill="none" xmlns="http://www.w3.org/2000/svg">
<path fill-rule="evenodd" clip-rule="evenodd" d="M49.9785 10.583C49.8587 12.1751 48.8708 17.7405 47.8979 23.7489L44.8296 41.5803C44.8296 41.5803 44.5901 44.1969 42.4946 44.6399C40.4141 45.0968 36.9715 43.0478 36.3578 42.5909C35.8639 42.2448 27.1526 37.1363 23.9645 34.6443C23.1113 33.966 22.1234 32.5954 24.0842 31.0171C28.4997 27.2653 33.7833 22.6137 36.9715 19.6648C38.4383 18.3081 39.9201 15.1239 33.7833 18.9864L16.4806 29.7711C16.4806 29.7711 14.5198 30.9064 10.8378 29.8819C7.15568 28.8574 2.85993 27.5007 2.85993 27.5007C2.85993 27.5007 -0.0887201 25.7978 4.94045 23.9842L33.5439 13.0888C36.3728 11.9536 45.9372 8.32636 45.9372 8.32636C45.9372 8.32636 50.3527 6.73427 49.9785 10.583Z" fill="#B5DFFF"/>
</svg>
