<svg width="54" height="12" viewBox="0 0 54 12" fill="none" xmlns="http://www.w3.org/2000/svg">
<path fill-rule="evenodd" clip-rule="evenodd" d="M0.75 1.78055H5.56771V11.3685H7.35607V1.78055H12.1008V0.0405273H0.75V1.78055Z" fill="white" fill-opacity="0.7"/>
<path fill-rule="evenodd" clip-rule="evenodd" d="M48.3793 8.1016V0.0761719H46.5908V8.13711C46.5908 9.91264 48.0873 11.4041 49.9487 11.4041H53.197V9.66407H49.9487C49.0728 9.66407 48.3793 8.95385 48.3793 8.1016Z" fill="white" fill-opacity="0.7"/>
<path fill-rule="evenodd" clip-rule="evenodd" d="M41.847 8.1016V0.0761719H40.0586V8.13711C40.0586 9.91264 41.555 11.4041 43.4164 11.4041H45.2413V9.66407H43.4164C42.5404 9.66407 41.847 8.95385 41.847 8.1016Z" fill="white" fill-opacity="0.7"/>
<path fill-rule="evenodd" clip-rule="evenodd" d="M24.2541 0.182619C23.7796 -0.0304455 23.1956 0.00506528 22.7942 0.360173L21.1153 1.70958C20.0204 2.56184 18.4509 2.56184 17.3925 1.70958L15.7137 0.360173C15.3122 0.040576 14.7648 -0.0304455 14.2538 0.182619C13.7793 0.395683 13.4873 0.857323 13.4873 1.38998V11.404H15.2757V2.17122L16.3341 2.98797C17.1736 3.66267 18.232 4.01778 19.3269 4.01778C20.4218 4.01778 21.4802 3.66267 22.3197 2.98797L23.3782 2.17122V11.3685H25.1665V1.38998C25.0205 0.821812 24.765 0.395683 24.2541 0.182619Z" fill="white" fill-opacity="0.7"/>
<path fill-rule="evenodd" clip-rule="evenodd" d="M32.5034 0.0405273C31.6639 0.0405273 31.0069 0.502167 30.6419 1.24789L26.1162 11.404H28.0506L29.7295 7.67533H35.2772L36.9561 11.404H38.8906L34.3647 1.24789C33.9998 0.466656 33.3063 0.0405273 32.5034 0.0405273ZM30.496 5.86429L32.2844 1.88708C32.3209 1.74504 32.4304 1.74504 32.5034 1.74504C32.6129 1.74504 32.6858 1.78055 32.7223 1.88708L34.5108 5.86429H30.496Z" fill="white" fill-opacity="0.7"/>
</svg>
