<svg width="375" height="61" viewBox="0 0 375 61" fill="none" xmlns="http://www.w3.org/2000/svg">
<path d="M0 60.3988H174.941H310.41H375V17.4475C347.519 18.8346 338 0.751202 320 0.751185C302 0.751167 284.336 23.2231 268.086 22.0881C241.133 20.2218 222.441 5.84582 203.027 5.84582C184.766 5.84582 144.569 22.0881 126.477 14.0822C108.385 6.07627 84.0234 1.28082 66.4258 0.751184C35.8789 -0.156771 27.8516 20.9027 0.0195312 21.9116L0 60.3988Z" fill="#F5FAFF"/>
<path d="M375 58.2345H200.059H64.5898H0V9.90105C0 9.90105 29.2383 3.3123 48.8867 4.49058C68.4375 5.64482 90.2779 22.4791 106.567 22.8878C125.981 23.3928 153.281 10.8148 172.715 10.8148C190.977 10.8148 228.457 27.5993 246.719 27.5993C264.316 27.5993 292.226 5.741 309.805 5.23602C340.332 4.3463 347.168 20.5536 375 21.5155V58.2345Z" fill="#DBEDFC"/>
<path d="M375 60.3987H200.059H64.5898H0V17.115C0 17.115 29.2383 10.5263 48.8867 11.7046C68.457 12.8348 87.3437 26.6615 103.613 27.0703C123.027 27.5752 149.746 19.7331 172.168 14.5902C194.59 9.44717 229.512 29.3006 244.141 30.4788C258.769 31.6571 286.465 27.6745 309.785 14.5902C333.105 1.50584 347.168 22.7179 375 23.6797V60.3987Z" fill="url(#paint0_linear_2831_6047)"/>
<defs>
<linearGradient id="paint0_linear_2831_6047" x1="187.5" y1="2.45264" x2="187.5" y2="70.2457" gradientUnits="userSpaceOnUse">
<stop stop-color="#46A4E0"/>
<stop offset="1" stop-color="#4197D3"/>
</linearGradient>
</defs>
</svg>
