<svg width="102" height="13" viewBox="0 0 102 13" fill="none" xmlns="http://www.w3.org/2000/svg">
<path fill-rule="evenodd" clip-rule="evenodd" d="M3.10231 12.2973L0 1.1469H2.04387L4.41623 9.70499L6.97107 1.1469H8.86895L11.4238 9.7405L13.7961 1.1469H15.84L12.7377 12.2973H10.4019L7.92001 3.98776L5.43816 12.2973H3.10231ZM17.2269 1.1469H19.1613V12.2618H17.2269V1.1469ZM23.2856 10.5217H27.9938V12.2618H21.3877V1.1469H23.2856V10.5217V10.5217ZM33.9064 1.18241C35.4758 1.18241 36.8262 1.71507 37.8481 2.7804C38.9066 3.84572 39.4175 5.15961 39.4175 6.72209C39.4175 8.28456 38.8701 9.59846 37.8481 10.6638C36.8262 11.7291 35.4758 12.2618 33.9064 12.2618H29.3807V1.1469L33.9064 1.18241ZM33.9064 10.5572C35.0013 10.5572 35.8773 10.2021 36.5707 9.49192C37.2642 8.78171 37.5927 7.85843 37.5927 6.7576C37.5927 5.65677 37.2642 4.73349 36.5707 4.02327C35.8773 3.31306 35.0013 2.95795 33.9064 2.95795H31.2786V10.5928H33.9064V10.5572ZM49.6369 9.10131C49.6369 10.0246 49.3084 10.7703 48.615 11.374C47.9215 11.9777 47.1551 12.2973 46.1696 12.2973H41.2424V1.1469H45.8411C46.7901 1.1469 47.593 1.4665 48.25 2.03467C48.907 2.63835 49.2354 3.34857 49.2354 4.23634C49.2354 5.19513 48.834 5.94085 48.0675 6.50902C49.0165 7.00617 49.6369 7.96496 49.6369 9.10131ZM43.1038 2.88693V5.79881H45.8047C46.6441 5.79881 47.2646 5.15961 47.2646 4.34287C47.2646 3.52612 46.6441 2.88693 45.8047 2.88693H43.1038V2.88693ZM46.1696 10.5572C47.0456 10.5572 47.739 9.88254 47.739 8.99477C47.739 8.10701 47.0456 7.4323 46.1696 7.4323H43.1038V10.5928L46.1696 10.5572ZM53.3232 10.5572H58.4329V12.2973H51.4253V1.1469H58.3599V2.88693H53.3232V5.7633H57.9584V7.50332H53.3232V10.5572ZM66.7179 12.2973L64.2725 8.24905H62.0461V12.2973H60.1483V1.1469H64.7835C65.8054 1.1469 66.7178 1.50201 67.4113 2.21222C68.1413 2.88693 68.5062 3.73919 68.5062 4.73349C68.5062 6.15392 67.5938 7.4323 66.2069 7.96496L68.8347 12.2973H66.7179ZM62.0461 2.88693V6.61555H64.747C65.7689 6.61555 66.5719 5.79881 66.5719 4.769C66.5719 3.73919 65.7689 2.92244 64.747 2.92244H62.0461V2.88693ZM76.8277 12.2973L74.3824 8.24905H72.156V12.2973H70.2581V1.1469H74.8933C75.9518 1.1469 76.8277 1.50201 77.5212 2.21222C78.2511 2.88693 78.6161 3.73919 78.6161 4.73349C78.6161 6.15392 77.7037 7.4323 76.3168 7.96496L78.9446 12.2973H76.8277ZM72.156 2.88693V6.61555H74.8568C75.8788 6.61555 76.6817 5.79881 76.6817 4.769C76.6817 3.73919 75.8788 2.92244 74.8568 2.92244H72.156V2.88693ZM80.3315 1.1469H82.2294V12.2973H80.3315V1.1469ZM86.3536 10.5572H91.4633V12.2973H84.4557V1.1469H91.3903V2.88693H86.3536V5.7633H90.9888V7.50332H86.3536V10.5572ZM92.7772 9.7405L94.4196 8.81722C94.8941 10.0601 95.843 10.6993 97.2665 10.6993C98.6899 10.6993 99.4198 10.0956 99.4198 9.24335C99.4198 8.78171 99.2373 8.46211 98.8358 8.21354C98.4709 7.96496 97.7774 7.71639 96.792 7.4323C95.6971 7.1127 95.1496 6.89964 94.3831 6.40249C93.6532 5.90534 93.2517 5.15961 93.2517 4.16531C93.2517 3.17101 93.6167 2.38978 94.3466 1.82161C95.0766 1.21792 95.9525 0.933838 96.9745 0.933838C98.8359 0.933838 100.259 1.85712 100.989 3.38408L99.3833 4.27185C98.9088 3.24204 98.1059 2.70937 96.9745 2.70937C95.8795 2.70937 95.1496 3.24204 95.1496 4.09429C95.1496 4.91104 95.6971 5.30166 97.4854 5.83432C97.9234 5.97636 98.2519 6.08289 98.4344 6.15392C98.6534 6.22494 98.9088 6.33147 99.2738 6.47351C99.6388 6.61556 99.9308 6.79311 100.113 6.93515C100.734 7.39679 101.391 8.14252 101.281 9.20784C101.281 10.2021 100.916 11.0189 100.15 11.6226C99.4198 12.2263 98.4344 12.5103 97.1935 12.5103C95.0036 12.4748 93.3612 11.445 92.7772 9.7405Z" fill="white" fill-opacity="0.7"/>
</svg>
