<svg width="102" height="20" viewBox="0 0 102 20" fill="none" xmlns="http://www.w3.org/2000/svg">
<path fill-rule="evenodd" clip-rule="evenodd" d="M4.99469 10.1185L2.25737 16.0843H0.25L3.24278 9.6924C1.81938 8.98218 0.870441 7.73931 0.870441 5.3956C0.870441 2.12861 2.98732 0.495117 5.54215 0.495117H8.13351V16.0843H6.41806V10.1185H4.99469ZM6.45459 1.91555H5.54215C4.15524 1.91555 2.80483 2.80331 2.80483 5.3956C2.80483 7.91686 4.04575 8.6981 5.54215 8.6981H6.45459V1.91555Z" fill="white" fill-opacity="0.7"/>
<path fill-rule="evenodd" clip-rule="evenodd" d="M16.4913 5.11153V16.1199H14.7759V11.1839H12.1845V16.1199H10.4326V5.11153H12.1845V9.79894H14.7759V5.11153H16.4913ZM25.5062 18.286H23.9368V16.1199H19.0827V18.286H17.5132V14.7349H18.2067C19.2286 12.3912 19.3381 8.98219 19.3381 6.07032V5.14704H24.5938V14.7349H25.5062V18.286ZM22.8784 6.49644H20.9075V6.70951C20.9075 9.01771 20.798 12.3912 19.849 14.7349H22.8418V6.49644H22.8784ZM30.3239 16.2619C27.988 16.2619 26.5647 14.4508 26.5647 11.0773C26.5647 7.52625 27.5865 4.96948 29.9589 4.96948C31.8568 4.96948 33.0612 6.3544 33.0612 10.083V11.0063H28.353C28.353 13.4921 29.083 14.806 30.4699 14.806C31.4554 14.806 32.2583 14.3798 32.6962 14.0602L33.0977 15.3741C32.3678 15.9068 31.4553 16.2619 30.3239 16.2619ZM28.3896 9.62139H31.2729C31.2729 7.73932 30.9443 6.3544 29.9589 6.3544C28.9005 6.3544 28.4991 7.63279 28.3896 9.62139ZM36.638 10.6512V16.1199H34.8861V5.11153H36.638V10.1896L39.3389 5.11153H41.1272L38.3169 10.2961L41.5288 16.1199H39.6308L36.638 10.6512ZM41.7477 10.6157C41.7477 7.17115 43.1346 4.96948 45.7624 4.96948C46.7844 4.96948 47.3683 5.21806 47.8428 5.53765L47.5873 7.13564C47.1129 6.74502 46.4559 6.3544 45.726 6.3544C44.4851 6.3544 43.5726 7.73932 43.5726 10.5092C43.5726 13.2435 44.2295 14.8415 45.6529 14.8415C46.4924 14.8415 47.1494 14.5219 47.5509 14.1668L47.9523 15.4451C47.3318 15.9423 46.6384 16.2619 45.5799 16.2619C43.2076 16.2619 41.7477 14.3798 41.7477 10.6157Z" fill="white" fill-opacity="0.7"/>
<path fill-rule="evenodd" clip-rule="evenodd" d="M62.1864 16.1198H61.128H62.1864V0.495117V16.1198ZM54.376 16.1198H53.3906V0.495117V16.1198H54.376Z" fill="white" fill-opacity="0.7"/>
<path fill-rule="evenodd" clip-rule="evenodd" d="M62.1864 16.1198H61.128V5.18253C61.128 4.43681 61.1645 3.65557 61.201 2.87434H61.128C60.909 3.7621 60.763 4.36579 60.5805 5.04049L58.1717 13.7406H57.2958L54.9235 5.11151C54.7045 4.29477 54.522 3.62006 54.376 2.87434H54.3031C54.3395 3.62006 54.376 4.4013 54.376 5.18253V16.1198H53.3906V0.495117H54.7045L57.4053 10.4736C57.5148 10.8998 57.6607 11.681 57.7337 12.2847H57.8067C57.8797 11.681 58.0622 10.8643 58.1717 10.4736L60.909 0.495117H62.1499V16.1198H62.1864Z" fill="white" fill-opacity="0.7"/>
<path fill-rule="evenodd" clip-rule="evenodd" d="M69.1943 14.6284C68.6468 15.6582 67.8439 16.3329 66.7125 16.3329C65.1796 16.3329 64.1211 15.161 64.1211 13.1369C64.1211 10.7932 65.435 9.55034 67.8804 9.55034H69.1213V8.20094C69.1213 6.53193 68.4644 5.78621 67.2234 5.78621C66.2745 5.78621 65.3985 6.21233 64.8511 6.99357L64.5591 5.99927C64.997 5.4311 65.946 4.89844 67.2234 4.89844C69.0849 4.89844 70.1433 5.89274 70.1433 8.0944V14.0957C70.1433 14.8414 70.2528 15.6937 70.3988 16.1198H69.4499C69.3769 15.8357 69.2673 15.4096 69.1943 14.6284ZM69.1213 13.35V10.3316H67.9169C66.0555 10.3316 65.1431 11.1483 65.1431 13.0659C65.1431 14.6284 65.8365 15.5161 66.9314 15.5161C67.9899 15.5161 68.7199 14.5218 69.1213 13.35Z" fill="white" fill-opacity="0.7"/>
<path fill-rule="evenodd" clip-rule="evenodd" d="M73.6464 15.3386V19.4934H72.5879V5.1115H73.5003L73.5733 6.92255C74.0843 5.85723 74.8873 4.89844 76.1647 4.89844C78.0626 4.89844 79.1575 7.1001 79.1575 10.2961C79.1575 14.3443 77.7707 16.3329 75.6538 16.3329C74.8143 16.2974 74.0844 15.9068 73.6464 15.3386ZM78.1356 10.3671C78.1356 7.49072 77.3327 5.78621 76.0188 5.78621C74.9968 5.78621 74.1574 6.85153 73.6464 8.02338V14.1667C74.0844 15.0545 74.7413 15.4806 75.7268 15.4806C77.1867 15.5161 78.1356 13.8471 78.1356 10.3671Z" fill="white" fill-opacity="0.7"/>
<path fill-rule="evenodd" clip-rule="evenodd" d="M82.2605 16.1199H81.2021V5.11157H82.2605V10.2961L86.0563 5.11157H87.0782L83.3555 10.2251L87.3337 16.1199H86.1657L82.2605 10.4027V16.1199Z" fill="white" fill-opacity="0.7"/>
<path fill-rule="evenodd" clip-rule="evenodd" d="M91.349 15.4451C92.8454 15.4451 93.6482 14.2733 93.6482 14.2733L93.9768 15.09C93.9768 15.09 93.1373 16.3329 91.3124 16.3329C88.9036 16.3329 87.8086 14.2023 87.8086 10.6157C87.8086 7.02908 89.1955 4.89844 91.0934 4.89844C93.0278 4.89844 94.3052 6.88704 93.9402 10.7932H88.8306C88.9035 13.8116 89.7066 15.4451 91.349 15.4451ZM88.8671 9.97647H92.9914C93.1738 7.06459 92.2614 5.7507 91.1299 5.7507C89.9255 5.7507 88.9766 7.24215 88.8671 9.97647Z" fill="white" fill-opacity="0.7"/>
<path fill-rule="evenodd" clip-rule="evenodd" d="M98.6111 16.1199H97.5527H98.6111ZM101.202 5.96383V5.11157V5.96383Z" fill="white" fill-opacity="0.7"/>
<path fill-rule="evenodd" clip-rule="evenodd" d="M98.6111 16.1199H97.5527V5.96383H94.9248V5.11157H101.202V5.96383H98.6111V16.1199Z" fill="white" fill-opacity="0.7"/>
</svg>
