<svg width="1920" height="135" viewBox="0 0 1920 135" fill="none" xmlns="http://www.w3.org/2000/svg">
<path d="M240 135H1024.2H1631.47H1921V50.4287C1797.81 53.16 1733.11 24.6551 1638.29 2.90393C1556.96 -15.7683 1514.58 61.8009 1441.74 59.5662C1320.92 55.8913 1237.13 27.585 1150.1 27.585C1068.24 27.585 893.226 58.275 811.452 58.275C732.568 58.275 616.649 18.5965 537.765 17.5537C400.833 15.7659 364.849 57.2322 240.088 59.2186L240 135Z" fill="#F5FAFF"/>
<path d="M1680 131H896.263H289.363H0V35.9208C0 35.9208 130.988 22.9597 219.012 25.2776C306.6 27.5481 400.925 65.2487 473.9 66.0528C560.875 67.0462 686.7 37.7183 773.763 37.7183C855.575 37.7183 1023.49 70.7358 1105.3 70.7358C1184.14 70.7358 1309.17 27.7373 1387.92 26.744C1524.69 24.9937 1555.31 56.876 1680 58.7682V131Z" fill="#DBEDFC"/>
<path d="M1922.5 135H1008.23H488.025H0V49.7742C0 49.7742 352.275 36.801 427.725 39.121C502.875 41.3464 575.4 68.5712 637.875 69.3761C712.425 70.3704 815.025 54.9293 901.125 44.8027C987.225 34.6762 1121.32 73.7676 1177.5 76.0876C1233.68 78.4076 1340.02 70.5658 1429.57 44.8027C1519.12 19.0396 1815.62 60.8062 1922.5 62.7001V135Z" fill="url(#paint0_linear_2966_49763)"/>
<defs>
<linearGradient id="paint0_linear_2966_49763" x1="960" y1="20.9039" x2="960" y2="154.389" gradientUnits="userSpaceOnUse">
<stop stop-color="#46A4E0"/>
<stop offset="1" stop-color="#4197D3"/>
</linearGradient>
</defs>
</svg>
