<svg width="70" height="70" viewBox="0 0 70 70" fill="none" xmlns="http://www.w3.org/2000/svg">
<rect x="0.000976562" width="70" height="70" rx="10" fill="url(#paint0_linear_11036_29421)"/>
<path d="M32.3408 54.1514C32.3408 55.2559 33.2363 56.1514 34.3408 56.1514C35.4454 56.1514 36.3408 55.2559 36.3408 54.1514H32.3408ZM35.755 15.756C34.974 14.975 33.7077 14.975 32.9266 15.756L20.1987 28.4839C19.4176 29.265 19.4176 30.5313 20.1987 31.3124C20.9797 32.0934 22.2461 32.0934 23.0271 31.3124L34.3408 19.9987L45.6545 31.3124C46.4356 32.0934 47.7019 32.0934 48.483 31.3124C49.264 30.5313 49.264 29.265 48.483 28.4839L35.755 15.756ZM36.3408 54.1514V17.1702H32.3408V54.1514H36.3408Z" fill="white"/>
<defs>
<linearGradient id="paint0_linear_11036_29421" x1="35.001" y1="0" x2="35.001" y2="70" gradientUnits="userSpaceOnUse">
<stop stop-color="#F1924E"/>
<stop offset="1" stop-color="#ED7F32"/>
</linearGradient>
</defs>
</svg>
