<svg width="45" height="158" viewBox="0 0 45 158" fill="none" xmlns="http://www.w3.org/2000/svg">
<path d="M6 90.0233C6 91.6443 4.71429 93.0493 3 93.0493C1.39286 93.0493 -2.06291e-07 91.7524 -1.31276e-07 90.0233C-6.09493e-08 88.4022 1.28571 86.9973 3 86.9973C4.60714 87.1054 6 88.4022 6 90.0233Z" fill="#316594" fill-opacity="0.5"/>
<path d="M6 68.3009C6 69.922 4.71429 71.3269 3 71.3269C1.39286 71.3269 -2.06246e-07 70.03 -1.31247e-07 68.3009C-6.09363e-08 66.6798 1.28571 65.2749 3 65.2749C4.60714 65.383 6 66.6798 6 68.3009Z" fill="#316594" fill-opacity="0.5"/>
<path d="M6 46.5787C6 48.1998 4.71429 49.6047 3 49.6047C1.39286 49.6047 -2.06302e-07 48.3079 -1.31283e-07 46.5787C-5.6264e-08 44.8496 1.28571 43.5527 3 43.5527C4.60714 43.5527 6 44.9577 6 46.5787Z" fill="#316594" fill-opacity="0.5"/>
<path d="M6 24.8563C6 26.4774 4.71429 27.8823 3 27.8823C1.39286 27.8823 -2.06245e-07 26.5855 -1.31247e-07 24.8563C-6.09359e-08 23.2352 1.28571 21.8303 3 21.8303C4.60714 21.8303 6 23.1272 6 24.8563Z" fill="#316594" fill-opacity="0.5"/>
<path d="M6 3.02599C6 4.64706 4.71429 6.05198 3 6.05198C1.39286 6.05198 -2.06222e-07 4.75513 -1.31232e-07 3.02599C-6.09292e-08 1.40493 1.28571 -2.07709e-07 3 -1.32179e-07C4.60714 0.108071 6 1.40493 6 3.02599Z" fill="#316594" fill-opacity="0.5"/>
<path d="M25.5 90.0233C25.5 91.6443 24.2143 93.0493 22.5 93.0493C20.8929 93.0493 19.5 91.7524 19.5 90.0233C19.5 88.4022 20.7857 86.9973 22.5 86.9973C24.1071 87.1054 25.5 88.4022 25.5 90.0233Z" fill="#316594" fill-opacity="0.5"/>
<path d="M25.5 68.3009C25.5 69.922 24.2143 71.3269 22.5 71.3269C20.8929 71.3269 19.5 70.03 19.5 68.3009C19.5 66.6798 20.7857 65.2749 22.5 65.2749C24.1071 65.383 25.5 66.6798 25.5 68.3009Z" fill="#316594" fill-opacity="0.5"/>
<path d="M25.5 46.5787C25.5 48.1998 24.2143 49.6047 22.5 49.6047C20.8929 49.6047 19.5 48.3079 19.5 46.5787C19.5 44.8496 20.7857 43.5527 22.5 43.5527C24.1071 43.5527 25.5 44.9577 25.5 46.5787Z" fill="#316594" fill-opacity="0.5"/>
<path d="M25.5 24.8563C25.5 26.4774 24.2143 27.8823 22.5 27.8823C20.8929 27.8823 19.5 26.5855 19.5 24.8563C19.5 23.2352 20.7857 21.8303 22.5 21.8303C24.1071 21.8303 25.5 23.1272 25.5 24.8563Z" fill="#316594" fill-opacity="0.5"/>
<path d="M25.5 3.02599C25.5 4.64706 24.2143 6.05198 22.5 6.05198C20.8929 6.05198 19.5 4.75513 19.5 3.02599C19.5 1.40493 20.7857 -2.07702e-07 22.5 -1.32174e-07C24.1071 0.108071 25.5 1.40493 25.5 3.02599Z" fill="#316594" fill-opacity="0.5"/>
<path d="M45 90.0233C45 91.6443 43.7143 93.0493 42 93.0493C40.3929 93.0493 39 91.7524 39 90.0233C39 88.4022 40.2857 86.9973 42 86.9973C43.7143 87.1054 45 88.4022 45 90.0233Z" fill="#316594" fill-opacity="0.5"/>
<path d="M45 68.3009C45 69.922 43.7143 71.3269 42 71.3269C40.3929 71.3269 39 70.03 39 68.3009C39 66.6798 40.2857 65.2749 42 65.2749C43.7143 65.383 45 66.6798 45 68.3009Z" fill="#316594" fill-opacity="0.5"/>
<path d="M45 46.5787C45 48.1998 43.7143 49.6047 42 49.6047C40.3929 49.6047 39 48.3079 39 46.5787C39 44.8496 40.2857 43.5527 42 43.5527C43.7143 43.5527 45 44.9577 45 46.5787Z" fill="#316594" fill-opacity="0.5"/>
<path d="M45 24.8563C45 26.4774 43.7143 27.8823 42 27.8823C40.3929 27.8823 39 26.5855 39 24.8563C39 23.2352 40.2857 21.8303 42 21.8303C43.7143 21.8303 45 23.1272 45 24.8563Z" fill="#316594" fill-opacity="0.5"/>
<path d="M45 3.02599C45 4.64706 43.7143 6.05198 42 6.05198C40.3929 6.05198 39 4.75513 39 3.02599C39 1.40493 40.2857 -2.07711e-07 42 -1.3218e-07C43.7143 0.108071 45 1.40493 45 3.02599Z" fill="#316594" fill-opacity="0.5"/>
<path d="M6 154.52C6 156.141 4.71429 157.546 3 157.546C1.39286 157.546 -2.12215e-07 156.249 -1.35046e-07 154.52C-6.26998e-08 152.899 1.28571 151.494 3 151.494C4.60714 151.602 6 152.899 6 154.52Z" fill="#316594" fill-opacity="0.5"/>
<path d="M6 132.798C6 134.419 4.71429 135.824 3 135.824C1.39286 135.824 -2.12209e-07 134.527 -1.35042e-07 132.798C-6.26981e-08 131.177 1.28571 129.772 3 129.772C4.60714 129.772 6 131.177 6 132.798Z" fill="#316594" fill-opacity="0.5"/>
<path d="M6 111.075C6 112.696 4.71429 114.101 3 114.101C1.39286 114.101 -2.12206e-07 112.804 -1.3504e-07 111.075C-5.78745e-08 109.346 1.39286 108.049 3 108.049C4.60714 108.049 6 109.346 6 111.075Z" fill="#316594" fill-opacity="0.5"/>
<path d="M25.5 154.52C25.5 156.141 24.2143 157.546 22.5 157.546C20.8929 157.546 19.5 156.249 19.5 154.52C19.5 152.899 20.7857 151.494 22.5 151.494C24.1071 151.602 25.5 152.899 25.5 154.52Z" fill="#316594" fill-opacity="0.5"/>
<path d="M25.5 132.798C25.5 134.419 24.2143 135.824 22.5 135.824C20.8929 135.824 19.5 134.527 19.5 132.798C19.5 131.177 20.7857 129.772 22.5 129.772C24.1071 129.772 25.5 131.177 25.5 132.798Z" fill="#316594" fill-opacity="0.5"/>
<path d="M25.5 111.075C25.5 112.696 24.2143 114.101 22.5 114.101C20.8929 114.101 19.5 112.804 19.5 111.075C19.6071 109.346 20.8929 108.049 22.5 108.049C24.1071 108.049 25.5 109.346 25.5 111.075Z" fill="#316594" fill-opacity="0.5"/>
<path d="M45 154.52C45 156.141 43.7143 157.546 42 157.546C40.3929 157.546 39 156.249 39 154.52C39 152.899 40.2857 151.494 42 151.494C43.7143 151.602 45 152.899 45 154.52Z" fill="#316594" fill-opacity="0.5"/>
<path d="M45 132.798C45 134.419 43.7143 135.824 42 135.824C40.3929 135.824 39 134.527 39 132.798C39 131.177 40.2857 129.772 42 129.772C43.7143 129.772 45 131.177 45 132.798Z" fill="#316594" fill-opacity="0.5"/>
<path d="M45 111.075C45 112.696 43.7143 114.101 42 114.101C40.3929 114.101 39 112.804 39 111.075C39.1071 109.346 40.3929 108.049 42 108.049C43.7143 108.049 45 109.346 45 111.075Z" fill="#316594" fill-opacity="0.5"/>
</svg>
