<svg width="158" height="45" viewBox="0 0 158 45" fill="none" xmlns="http://www.w3.org/2000/svg">
<path d="M154.974 39C156.595 39 158 40.2857 158 42C158 43.6071 156.703 45 154.974 45C153.353 45 151.948 43.7143 151.948 42C152.056 40.3929 153.353 39 154.974 39Z" fill="#E97522" fill-opacity="0.5"/>
<path d="M133.253 39C134.874 39 136.279 40.2857 136.279 42C136.279 43.6071 134.982 45 133.253 45C131.631 45 130.227 43.7143 130.227 42C130.335 40.3929 131.631 39 133.253 39Z" fill="#E97522" fill-opacity="0.5"/>
<path d="M111.53 39C113.151 39 114.556 40.2857 114.556 42C114.556 43.6071 113.259 45 111.53 45C109.801 45 108.504 43.7143 108.504 42C108.504 40.3929 109.909 39 111.53 39Z" fill="#E97522" fill-opacity="0.5"/>
<path d="M89.8072 39C91.4283 39 92.8332 40.2857 92.8332 42C92.8332 43.6071 91.5364 45 89.8072 45C88.1862 45 86.7812 43.7143 86.7812 42C86.7812 40.3929 88.0781 39 89.8072 39Z" fill="#E97522" fill-opacity="0.5"/>
<path d="M67.9772 39C69.5982 39 71.0032 40.2857 71.0032 42C71.0032 43.6071 69.7063 45 67.9772 45C66.3561 45 64.9512 43.7143 64.9512 42C65.0592 40.3929 66.3561 39 67.9772 39Z" fill="#E97522" fill-opacity="0.5"/>
<path d="M154.974 19.5C156.595 19.5 158 20.7857 158 22.5C158 24.1071 156.703 25.5 154.974 25.5C153.353 25.5 151.948 24.2143 151.948 22.5C152.056 20.8929 153.353 19.5 154.974 19.5Z" fill="#E97522" fill-opacity="0.5"/>
<path d="M133.253 19.5C134.874 19.5 136.279 20.7857 136.279 22.5C136.279 24.1071 134.982 25.5 133.253 25.5C131.631 25.5 130.227 24.2143 130.227 22.5C130.335 20.8929 131.631 19.5 133.253 19.5Z" fill="#E97522" fill-opacity="0.5"/>
<path d="M111.53 19.5C113.151 19.5 114.556 20.7857 114.556 22.5C114.556 24.1071 113.259 25.5 111.53 25.5C109.801 25.5 108.504 24.2143 108.504 22.5C108.504 20.8929 109.909 19.5 111.53 19.5Z" fill="#E97522" fill-opacity="0.5"/>
<path d="M89.8072 19.5C91.4283 19.5 92.8332 20.7857 92.8332 22.5C92.8332 24.1071 91.5364 25.5 89.8072 25.5C88.1862 25.5 86.7812 24.2143 86.7812 22.5C86.7812 20.8929 88.0781 19.5 89.8072 19.5Z" fill="#E97522" fill-opacity="0.5"/>
<path d="M67.9772 19.5C69.5982 19.5 71.0032 20.7857 71.0032 22.5C71.0032 24.1071 69.7063 25.5 67.9772 25.5C66.3561 25.5 64.9512 24.2143 64.9512 22.5C65.0592 20.8929 66.3561 19.5 67.9772 19.5Z" fill="#E97522" fill-opacity="0.5"/>
<path d="M154.974 0C156.595 0 158 1.28571 158 3C158 4.60714 156.703 6 154.974 6C153.353 6 151.948 4.71429 151.948 3C152.056 1.28571 153.353 0 154.974 0Z" fill="#E97522" fill-opacity="0.5"/>
<path d="M133.253 0C134.874 0 136.279 1.28571 136.279 3C136.279 4.60714 134.982 6 133.253 6C131.631 6 130.227 4.71429 130.227 3C130.335 1.28571 131.631 0 133.253 0Z" fill="#E97522" fill-opacity="0.5"/>
<path d="M111.53 0C113.151 0 114.556 1.28571 114.556 3C114.556 4.60714 113.259 6 111.53 6C109.801 6 108.504 4.71429 108.504 3C108.504 1.28571 109.909 0 111.53 0Z" fill="#E97522" fill-opacity="0.5"/>
<path d="M89.8072 0C91.4283 0 92.8332 1.28571 92.8332 3C92.8332 4.60714 91.5364 6 89.8072 6C88.1862 6 86.7812 4.71429 86.7812 3C86.7812 1.28571 88.0781 0 89.8072 0Z" fill="#E97522" fill-opacity="0.5"/>
<path d="M67.9772 0C69.5982 0 71.0032 1.28571 71.0032 3C71.0032 4.60714 69.7063 6 67.9772 6C66.3561 6 64.9512 4.71429 64.9512 3C65.0592 1.28571 66.3561 0 67.9772 0Z" fill="#E97522" fill-opacity="0.5"/>
<path d="M46.4703 39C48.0914 39 49.4963 40.2857 49.4963 42C49.4963 43.6071 48.1995 45 46.4703 45C44.8493 45 43.4443 43.7143 43.4443 42C43.5524 40.3929 44.8493 39 46.4703 39Z" fill="#E97522" fill-opacity="0.5"/>
<path d="M24.7486 39C26.3697 39 27.7746 40.2857 27.7746 42C27.7746 43.6071 26.4778 45 24.7486 45C23.1276 45 21.7227 43.7143 21.7227 42C21.7227 40.3929 23.1276 39 24.7486 39Z" fill="#E97522" fill-opacity="0.5"/>
<path d="M3.02599 39C4.64706 39 6.05198 40.2857 6.05198 42C6.05198 43.6071 4.75513 45 3.02599 45C1.29685 45 0 43.6071 0 42C0 40.3929 1.29685 39 3.02599 39Z" fill="#E97522" fill-opacity="0.5"/>
<path d="M46.4703 19.5C48.0914 19.5 49.4963 20.7857 49.4963 22.5C49.4963 24.1071 48.1995 25.5 46.4703 25.5C44.8493 25.5 43.4443 24.2143 43.4443 22.5C43.5524 20.8929 44.8493 19.5 46.4703 19.5Z" fill="#E97522" fill-opacity="0.5"/>
<path d="M24.7486 19.5C26.3697 19.5 27.7746 20.7857 27.7746 22.5C27.7746 24.1071 26.4778 25.5 24.7486 25.5C23.1276 25.5 21.7227 24.2143 21.7227 22.5C21.7227 20.8929 23.1276 19.5 24.7486 19.5Z" fill="#E97522" fill-opacity="0.5"/>
<path d="M3.02599 19.5C4.64706 19.5 6.05198 20.7857 6.05198 22.5C6.05198 24.1071 4.75513 25.5 3.02599 25.5C1.29685 25.3929 0 24.1071 0 22.5C0 20.8929 1.29685 19.5 3.02599 19.5Z" fill="#E97522" fill-opacity="0.5"/>
<path d="M46.4703 0C48.0914 0 49.4963 1.28571 49.4963 3C49.4963 4.60714 48.1995 6 46.4703 6C44.8493 6 43.4443 4.71429 43.4443 3C43.5524 1.28571 44.8493 0 46.4703 0Z" fill="#E97522" fill-opacity="0.5"/>
<path d="M24.7486 0C26.3697 0 27.7746 1.28571 27.7746 3C27.7746 4.60714 26.4778 6 24.7486 6C23.1276 6 21.7227 4.71429 21.7227 3C21.7227 1.28571 23.1276 0 24.7486 0Z" fill="#E97522" fill-opacity="0.5"/>
<path d="M3.02599 0C4.64706 0 6.05198 1.28571 6.05198 3C6.05198 4.60714 4.75513 6 3.02599 6C1.29685 5.89286 0 4.60714 0 3C0 1.28571 1.29685 0 3.02599 0Z" fill="#E97522" fill-opacity="0.5"/>
</svg>
